<svg id="Ebene_1" data-name="Ebene 1" xmlns="http://www.w3.org/2000/svg" viewBox="0 0 1133.86 1133.86"><defs><style>.cls-1{fill:#fff700;}.cls-2{fill:#fdfdf7;}.cls-3{fill:#e3db00;}.cls-4{fill:#fefff9;}.cls-5{fill:#fffdcf;}.cls-6{fill:#fffffa;}.cls-7{fill:#fffdcc;}.cls-8{fill:#fffee3;}.cls-9{fill:#fffdb5;}.cls-10{fill:#fffcb3;}.cls-11{fill:#fffdba;}.cls-12{fill:#fff94a;}.cls-13{fill:#fff94d;}.cls-14{fill:#e9e43b;}.cls-15{fill:#fffb87;}.cls-16{fill:#fff959;}.cls-17{fill:#fffa66;}.cls-18{fill:#fff957;}.cls-19{fill:#fffb7d;}.cls-20{fill:#fffa5c;}.cls-21{fill:#fffa63;}.cls-22{fill:#fffb82;}.cls-23{fill:#fffb85;}.cls-24{fill:#fffffe;}.cls-25{fill:#fffa75;}.cls-26{fill:#fffa78;}.cls-27{fill:#fff708;}.cls-28{fill:#fff82e;}.cls-29{fill:#fff82b;}.cls-30{fill:#fff70d;}.cls-31{fill:#fff829;}.cls-32{fill:#fff;}.cls-33{fill:#df3c0b;}.cls-34{fill:#e66741;}.cls-35{fill:#e66943;}</style></defs><path class="cls-1" d="M796.6,619.3c-58.92,163.67-123.41,326.1-194,484.87-22.38,4.53-18.7-38.3-28.06-50.53-5.23,7-18,44.57-21.87,16.48,36-62.66-33.56,6.44-41.79-27.27-5.8-16.9-6-37.79-11.92-53.34-6.73,6-9.81,17.81-15.33,25.72-22,9.49-1.8-23.1,3.3-31.56-.56-14.3-39.18-10.55-52.62-17.61-45,.48-32.76-46.52-41.49-75.28-9.18,2.69-15,30.11-25.94,21.62-14-10.18,30.46-32,14.24-39.09C324.49,856,256.58,854.51,273,776.79c1.05-4-1.57-9-4.92-4.23C235.85,807,227,787,261.38,761.29c-8.52-18.09-61.3-19.22-83.47-33.43-17-13.61-4.74-43.92-11.14-62.28-10.46-.71-22.28,22.52-32,13.21-7.82-12.7,21.49-16.1,24.9-26.08-22.38-18.88-81.14-15.55-85.27-48.07,11.39-55.12-9.64-5.42-26-19.4,22.33-35.46,51.81-5.6-24.25-44.65-14.28-13.94,20-22.79,29-28.53-26.36,22.51-46.95,20.2,1.42,39.54C63,554.53,72,562.08,80.82,561.14,95.66,550,133.29,543,137.39,528.71c-6.91-11.41-10.64-9.89-21.86-2.24-15.32,3.2-2.71-8.65,5.22-9.37,10.92-6.69-9-19.23-13.79-25.1-8.86-9.22-34.14,16.25-47.88,19.31-10.7-12.87,369.65-166.6,274.23-122.86C322.12,396,298.45,396.14,294,408.8c6.88,5.78-34,21.56-36.9,17.65-1.93-6.2,46.85-19.33,15.4-13.29-19.44,9.28-41.61,14.47-59.26,26.5,11.51.52,20.15-7.53,30.71-10.49,20.44,4.91-34.47,12-21.51,21.07,7.82,8.72,16.45,27.61,29.18,25.69,22.48-3.65,4,18.31-9,16.43-8.32,1.58-55.66,33.11-38.95,9.58,6.58-7.26,38.19-9.78,25.17-23.32-6.73-7.45-12.23-18.6-22.07-20.74-.25-1.67,2.22-3.39,0-5-7.6-3.72-33,20.69-29.75,4.38,61.1-28.9-40.24,10.91-56.23,22.93-7.25-.63,10.9,19,11.89,16.24,2.1,3.63,5.52,15.44,14.26,19.26-.25,6.58,12.65,0,6.8,6.26-1.08,1-1.66,2-.38,3.28,12.9,1,5.74,5.3,10.66,12.45.65,7.71,20.83-2.57,13.79-6.72,7.27-6.49,9.28,7.9.7,8.8-23.34,15.12,31.86-14,13.71,11.35-9.64,6.49-10.1,6.6,1.46,4.52-16.46,17.12,5.43,11.1,11.31.26,10,6.71-10.71,9.78-10.53,15.29,13.31.84-3.43,8.47,13.69,6.85-8,16.08,16.87-10.38,21.15,2.81,6,7.44-21.33,13.13-7.51,16.91,7.79,20.44,32.44-13.27,45.9-17.38,8.26-8.87,37.15-15.8,29.65-28.3,1.12-7.07,4.15-12.4,10.44-4.83C326.6,556,347.33,522.42,366.63,516c13-4,10.45-9,14.77-19.19,16.2,6.53,32.36-19,49.1-24.64,33.39-12.67,5.42-19.16,32.39-31.12C488.15,444.89,601,352,658.27,318.8c13,5.68,11.12,13.19-1,18.27-61.6,41-123.4,81.75-184.6,123.34-7.24,6.36,12.09,17.31,16.4,23.36,8.88,8.14,15.82,17.11,25.1,25.27,5.28,14.18,12.71-9.42,19.86-3-.7,5.5-5.77,7.79-8.68,12,5.65-3.37,9.76-8.25,14.42-12.41,17.59-12.29,196.89-195,160.31-128q-80.14,74.1-161,147.54c-8,8.11.31,2.75,4.62.75-5.56,14.1-2.7,9.45,7.37,19.9,11.33,9.95,22.43,23.44,35.08,34.66,5.18,10.33,9.34-9.7,15.68-6.33,4.63,6.19-14,12.85-4.6,18.29C626,585.61,740.09,370.2,755.9,415.05c-49.2,56.7-91.29,120.51-138,179.7a57.51,57.51,0,0,0-6.51,9.84c3.3-.47,9.09-7.57,6.92-.05-5.62,5.3,3.32,14.1,7.61,9.93,8.77-8.43.14,5.16,1.79,6.82,3.8,2.13,4.89-5.35,9-4.28,2.18,4.4-10.54,11.18,0,11-.91,8.07,10.68-.6,7.59,6.56,5.17,19.43,8.47.75,15.85.43,2.77,2.3-1.22,5.93-2.2,8.28-6.86,6.2,6.17,18.75,10.14,9C700.46,582.46,759,509,776.71,439.69c-23.09-26.39,21.81,12.2,26.19,22.45-4,5-9.71-12.15-13.2-1.83q-12.66,23.2-25.27,46.43c-31.09,56.74-63.13,115.67-94.69,170.19-13.4,14.54-15.57,35.36-26.9,51.82-1.28,8.06-16.46,13.33-7.5,20.87,6,2,19.23,22.09,5.95,14.44-14.52-16-18.14-1.19-26.78,11.75-3,16.74-31.79,39.72-22.41,52.52,11.49,5.59,3.49,21.1-5.91,10.58-.88-2.74-2-2.86-3.43-.34-41.46,84.86-62.65,60.87,7.19,120.52,2.72,7.45,10.23-10.43,1.32-5.2,4-16.09,12.73,2.53,5.2,9.52-2.19,3,2.47,5.71,3.18,1.46,11.54-25.41,23.2-50.77,34.77-76.16,1.58-24.1-14.11,25.11-20.31,24.7-19.1-8.72,20.57-35.46,4.37-45.34-17.84,42.86-38.45,40.61-10.55-3.65,10.84-5.77-6.43-10.83-4.16-17.71,5.8-2.45,14.77,2.78,17.42,9.24,15.15,16.87,27.79-48.7,38.5-59.84,9.51-8.91-21-22-5.68-27.38,7.86-.79,14.21,15.2,17.54,2.06.35-9.61,18.37-17.34,11-3-2.95,5.09-13.76,26.53-.11,19.74,10.2-19.42,14.59-44,29.91-62.72,9.28-10.32-25-17.78-8.06-25.42,22.28,35.77,46.9-84.36,61.5-101.48,16.51-19.1,44.7-148,68-104.59-5.81-.51-7.07,2.17-8.87,6.85C811.77,546.56,713.77,708.61,737,729.43,758.8,766.62,779.54,628.07,796.6,619.3Z"/><path class="cls-1" d="M608,270.22c-52.6,41.86-158.26,66.1-229.26,100.1-5.1,3.25,15.32,16.73,1.08,14.74C325.45,363.93,581.29,301.56,608,270.22Z"/><path class="cls-1" d="M835.2,495.24C852,508,802.26,593.09,796.12,618.92,800.38,577.86,838.12,533.15,835.2,495.24Z"/><path class="cls-2" d="M590.65,1101.17c3.48,2.91,7.23,4.81,11.9,3C598.08,1107.69,593.21,1106.46,590.65,1101.17Z"/><path class="cls-1" d="M363,374.21c8.29-5.55,19.58,18.27,20.12,7.45-.95-4.73-12-8-5.16-12.48,26.21,49.54,56.31,9.41,93.38-5.05,51.3-24.44,101.88-53.86,153.48-76-36.37,28.28-88,46.41-129.69,69.93-43.17,20.38-83.19,42-125.18,63.69,12.6,1.36,22.34-13.47,34.47-12.41,12.18-2.82,22.59-18.19,38.08-17.61C444,398,398.92,410.65,423.89,410c.77,4.43-6.49,3.46-5.7,6.86,7.54-2.29,12.28,10.22,18.59,14.82,2.78,3.9,12,7.19,7.82,12.89,11.83-1.7,3.86,3.42,5.48,8.92,3.69,4.1,1.76,7.15-1.68,9.39-13.52,11.3-23.86,11.31-4.5-.61,2.44-22.24-24.1.89-33.34,6.81-6.71,7.55-38.58,16.25-28.62,26.73-3.86,5.47,1.87,15.84-6.09,17.07-15.65,6.22-27.8,18.86-43,26.21,4.58-14,45-20.75,38.07-34.6-16.36-12-42.84,25-61.39,31.62-11.24,3.77,2.51,16.66,8.59,10.68,30.49-24.76-2.15,19.25-11.59.74-4.65-4.18-5-4.07-7.2,1.63-3.53,6.37-6.25-6.41-11.31-2.38-3.27,3.75-15.77,5.68-6.9-.83,13.3-11.67-30,24.59-20.14,6.9,5.12-5.27,26.6-10.8,19.71-19,4.86-4,6.3-4.19.22-8.55-1.51-2.14-1.77-5.46.07-7.35,22.09-1.77,50-25,67.05-37.66-15.41,2-30.46,20.05-46.27,23.88,1.33-10.28-13.6-.71-4.66,2.87-80.28,27.53-.2-48.37-121.72,22.12-2.92,2.12-9.78,2.22-9.07,6.85-.27,3.29-6.59,2.88-5.72-1.11,2.23-9-2.54-5.85-8.48-8.88,25.22-12.81,52.54-30.27,78.89-38.94-3.9,12-21.4,7.57-29,17.76-8.8,15.27,34.58-12.72,39.92-13.94,5.8-.35,18.3-4.95,20.21-12.22-.31-4.54-19.3,1.69-7.18-5.39,14.76-13.21,75.34-21.45,47.78-42.18,2.49-5.11-5-1.21-6.32-8.82,1.21-5.53-1.41,1.73-4.27.11-5.67-10.87,5.44-6,.47-13.42-.38-4.83,24.87-6.79,32.33-12.8,24.79-1.47-40.05,15.92-17.61,18.3,1.61-1,7-2.39,5.49,1.18-.71,1.76-4.76,1.22-3.2,4.5,12.94,7.34,12,22,2.83,31.67,15.38-2.58,34.3-15.19,48.18-23.8-12.18-2.44-31.74,26.88-39,7.21,23.54.17,44.13-20.36,66.06-28.72C397.7,397.56,367.61,382.63,363,374.21Z"/><path class="cls-1" d="M732.64,392.45C767.36,410.69,619.11,555.57,603,592.64c-3.72,7.46-15-4.4-7.24-8.39,1.8-2.33,7.16-6.65,5.65-9.54-5.75-.55-11.3,18.22-16.62,6.43-2-5.82,3.8-8.07,6.2-12.39-1.08-11.13-14.76,16-18.37-.64-.57-5,14.33-9.59,5.32-14.09-5.78,3.39-12.44,15.15-16.39,3-.42-5.53,10.94-8,7.51-13.3-4.59-1.74-5.17,7.07-10.34,6.47-11.71,4.25-6.51-9.09.48-12.85,5.36-10.27-9.28-2.36-10.89,2.84-23.1,3.27,10.28-21.35-4.58-14-31.18,19.23,30.79-35,37.55-41.4,21.73-10,141.16-153.24,136.62-99-45.52,40.14-90.51,80.89-136.63,120.35-24,13-2.12,24,9.31,37.72,13.2,11.76,25.64-22.72,36.64-29.88C663,474.13,695.77,431.07,732.64,392.45Z"/><path class="cls-1" d="M354.77,774c4.62-1.14,7.77-11.71,12.55-7,4.43,8.4-20.79,14.58-10.76,24.07,8.45,11.35,14.91-2.14,21.81-8,19.13-5.93-18.93,16.55.9,26,5.4-1.1,10.22-6.86,14.77-10.68,14.48-6.44-1.47,11.63-5.44,15.49,1,30.09,20.75-8.46,24.78-2.68,1.93,5.29-7.3,11.39-8.52,17.13-3.93,4.09,3,10.42,6.09,5.54,2-1.53,2.55-4.86,5.82-4.84,24.76-19.93-20.13,34.54-25.74,41.47-26.66-2.64-114.39-17.09-115-51-8.39-49.94,8-71.82,48.39-95.62,3.23,8.13-21.2,14.08-11.65,23.61,9.35,10,15.78-14.23,24.32-10.75,4.43,9.61-18.82,14-12.1,23,12.2,17.07,16.61-12.21,27.34-7.88,2.32,5.92-7.3,13.82-11.6,18-1.83,4.66,2.48,5.93,4.74,8.05C349.6,781.62,350.81,773.55,354.77,774Z"/><path class="cls-1" d="M493.67,958.16c4,3.11,4.6-4.17,9-3.55-8.68,40.92-57.32,6.26-85.27,5.51-23.4-9.66-26.4-68.63-13.21-87.26,9.32-9,14.65-23.54,25.25-30.33-8,18.56,1.55,7.15,9.32-1.88,14.9-3.78-8.06,14-4.05,20.8,3.68,9,13.12-1.19,17-5.21,11-10.1,4.24,11.29-1.36,14.6-4.45,16.22,13.33,4.2,17.11-3,16.07-1.8-18.73,20-1.76,26.63,9.61,5.37,10.4-16.06,18.77-14.14,3.4,5.8-6.1,12.24-8.23,17.75-3.56,6.61,7.27,15.64,11.14,6,1.93-4.11,13.92-18.83,11.67-7-3.72,7.2-15.84,18.7-4.83,23.62,2.52,3,4.26.13,5.65-2,3.58-3.6,6.65-15.46,12.82-12.4,3.18,8.11-21.14,22.2-3.41,28,6.58-1.28,5-10.94,12.52-12.42-9.59,11.55-10.77,35.76-20.7,15-4.82-4.84-4.88,5.61-8.18,7.82C488.66,952,488.53,951.91,493.67,958.16Z"/><path class="cls-1" d="M247,660.07c4.51.12,6.43-7.27,11-3.58,5.74,9.41-21.13,13.39-9.5,22,7.48,4.11,15.1-12.42,23.14-7.3,2.51,6.74-15.46,13.59-11.93,19.25,4.59,8.61,15.09-1.12,20.6-4.62,4.32-2.72,5.53-2.29,6.59,3.18-1.86,7.24-13.38,7.79-13,15.33,7.77,14.87,18-8,25.79-5,3.58,8.17-19.38,12.35-12.7,21.24,6.22,17.07,28.36-20,25.33-4.4-18.88,11-33,44.41-57.48,35.92C214,736.36,158.7,736.86,169.89,679c-5.48-25.64,23.09-28.26,38.93-42,5.69-2.21,29-19.8,18.31-2.9-.63,6.46-13.49,5.7-9.31,13.24,6.66,9.13,13.52-5.43,21.17-5.38,18-.8-13.62,13.51-6.93,19.94C237.61,670.21,240.75,660,247,660.07Z"/><path class="cls-1" d="M395.81,773.05c-14.58,5,.12-8.81.75-13.67,4.29-5.34-6.44-13.72-9.95-5.35-3.56,4.31-11.28,10.31-13.86.94,5.21-6.87,16.82-22.5-.78-17.76-11.7,14.17-19.11,5.91-7.19-6.17,9.88-10.86-10.47-12.87-14.56-2.77-10,6.54-3.59-8.75,2.51-10.49,4.11-4.26,4-5.32.11-9.43-8.13-8.19-12.95,12.43-20.71,8.44,14.86-21,44.95-45.82,66.11-61.74,3.86,4.85-34.52,35.48-13.18,28.55,35.81-37.76,33.5-14.54,5.22,11.36,7.66,13.71,19.79-11.75,27.6-16.08,28.84-5.45-19.95,25.18-11.76,32.31,10.07,6.84,17.82-15.75,26.76-19.2,26.52,1.53-28.46,27.69-8.79,35.85,8.15-1,26.46-37.3,29.71-16.48-3.61,9.13-25.92,18.46-18.35,28.25,9.79,8.57,17.94-14.3,26.29-18.59,19-3.5-5.92,19.73-10.51,24.85-2.08,2.29-4.33,4.54-.87,7.47,12.15,9.08,18.56-29.35,30.45-18.08-3.58,9.66-13.6,16.94-19.42,25.6-.24,16.14,11.87-3.82,17.12-5.74-9.19,18.49-27.61,35.67-39.72,53.8-1.88,2.27-3.69,7.44-6.93,4.87-4.18-6.71,16.71-12.75,7.15-20.21-8.18-7.63-10.89,14.49-18.74,8.83-4.61-7.19,17.18-13.69,6.07-21.43-8.19-9.42-12.87,13.34-20.23,7.94-3.43-2.84,4.15-10.68,5.84-14.15,3.42-3.8-.42-5.45-2.27-7.6C404,760.33,401.58,772.81,395.81,773.05Z"/><path class="cls-1" d="M164.16,564.14c16.27-5.44,3.53,10.56-4.63,12.19-10.91,9.53,14.3,7.44,17.85.48,3.26-2.54,4.86-.57,6.36,1.52,2.53,4-4.06,2.56-4.56,5.87-1,5.32-11.63,3.83-9.43,10,6.5,6.76,15.41-7,23.19-5.5,10.33,9.39-13.79,11.7-11.49,19.35,3,8.49,29.61-16.63,24.52-1.33-13.91,10.07-17.5,20,3,9.31,19.38-5.26-40.21,38.3-51.94,32.36-23.49-15.55-76.83-13.57-80.7-44.83,2.85-9.26-.25-24.16,7.55-30.2,12.48-5.71,89.38-46,55-21.23-5.38,1.49-2.52,6.62,2.12,3.72,3.11-1.14,5.32-4.56,9.23-3.66,4.45-1.72,14-4.06,8.92,3.94-2.6,5.93-14.43,4.89-13.4,11.61C150.36,575.61,158.2,562.61,164.16,564.14Z"/><path class="cls-3" d="M687.32,348c-32.22,48-92.69,96.74-139.81,138.77-2.59,2.23-7.62,4.15-4.31,9.42-2.21,11.15-14.41,7.82-20.11,16.05-5,4.72-7.64,3.88-9.58-3.19,1.23-4.74,8.35-6.18,8.88-10.45-4.84-1.86-7.35,7.42-12.82,7.47-3.82-2.42-9.23-8.13-2.93-11.07,13.73-12.39,0-4.17-6.15-1-10.11.6-6.69-10.41,0-13.23,5.44-9.45-8.36,3-11.76,3.41-6.07-1.7-8.25-8.39-1.94-11.25,11.81-10.58-2.71-2-8.23,1.1-17.24-8.94,17.27-20.24,23.82-27.11,24.52-9.89,183.82-130,175.93-99C627.4,388.59,547.9,419.28,507.43,459.61c8.38,4.93,16.85,25.2,26.84,19.8C585.48,436.22,635.59,389.4,687.32,348Z"/><path class="cls-3" d="M445.78,441.16c-10.47-4.87-3.32-10.85,3.73-14.62-6.74,3.3-14.63,9.86-18.6-.23,2.17-4.7,7.66-4.83,11.23-8.24-7.2,3.36-16.68,9.36-20.24-1.72,3.92-4.9,12.05-4.41,12.81-11.85,19-6.86,270.47-136.42,197.34-79C612,349.48,442.71,398,463.92,417c5.47,5.44,5.54,5.55,12.19,1.35,44.32-26.78,87.83-55.23,133.46-79.68-42.8,38.27-104.29,79.81-155,109.12-12.47-2.92-8-6.87,2.13-12.24C453.12,437,449.63,441.7,445.78,441.16Z"/><path class="cls-1" d="M561.68,963.08c19.49-18.88-3,18,3.81,21.73,5.73-1.47,4.54-12.56,10-14.88,9.77-7,6,8.11,4.13,12.7-10.2,19.58,4.11,12.62,7.56-1.32,17.22-10.06-14.16,40.3-16,48.8-.33,15.1-55.19,27.09-58.24,13-18.1-43.44-7.05-80.79,20.55-116.9,6.67,8.75-8.77,16.83-4,24.51,6.38.17,5.22-11.75,11.14-13.71,17.26-6.34-8.75,24.4.5,26.55,4.2,1.62,7-16.52,15.26-16.86,9.91,7.48-10.33,20.07-3.13,27.09C558.72,974.25,556.61,964.8,561.68,963.08Z"/><path class="cls-3" d="M762.36,422.31C743.57,476.5,676.91,531.88,641,585.11c4.33,79.83,101-134.72,121.49-150.69,23.43-18.34-38.53,88.75-44.83,100.24-15.76,24.59-30,50.12-45.78,74.67-11.14,15.44,12.29,17.32-13.31,44.8-10.26-5.77.91-10.83,1.64-18.84-3.73,1.08-4.75,4.34-6.48,6.67-5.18,8.8-11.36-3.7-6.12-8,6.41-13-4.71,2.07-9.4.21-4.17-3.16-1.3-9.25,1.05-12.49,1.9-3.81,1.9-3.94-2.64-4.48-27.08,23.48,9.7-27.31-16.15-3.09-8.51-.08-6.06-7.88-1.74-12C664.17,541.2,713.84,481.1,762.36,422.31Z"/><path class="cls-1" d="M592.55,841.11c16.83-4.9-17.43-15.52-1.82-24.7,8.62-9.42,27.4-61.12,30.83-48.82-8.41,18.6-24.78,38.18-28.78,56.67,3,.69,4.07-9,7.4-5.35-1,3.84-5,18.17,3,11.33,5.16-23.42,45.22-55.79,23.41-75.09,5.74-4.62,13.08,8.09,19.19,11.49,2-14.08-26.9-17.35-9.18-29.52a2.16,2.16,0,0,1,.07,2.77c3,37,30.2-38.53,37.88-47.21-.58-28.08-13.66,7-20,11.41-1.16-11.23,8.86-17.87,12.82-27.1,11.7-7.61,7.44-25.24,20.21-32.85,2.15,9.6-17.85,20.77-7.49,29.27,24.5,27.94,13.3,3.14,22,11.28-4.92,6.42.82,10.22,2.57,15.34-6.5.69-2.42,11,3.06,12.05,17.75,5.75-2,23.54-6.28,33-1.34-7.46,5.75-15.18,8-22.43-.19-13.6-32.35,57.82-30.53,63.72,4.58-.84,5.19-9.25,8.07-12.84,5.12-7.24,3.09,13.74-3.75,15.16-20.75,8.35,1.34-21.41-.4-27.94-3.08-3-9,8.65-6.29-.85,4.19-6.54,18.89-47.73,19.26-30.79-4.78,10-.17,1.7,2.1-3.38,2.09-4.12-4.59-5.54-.56-9.9,3.32-3.06.57-12.3-2.79-5.68-10.63,21.18-19.52,43.93-31.9,64-11.94-11.16-14.65,3.13-4,9.93-7,25-38.41,54.58-29,78a7.17,7.17,0,0,1-9.36-5c-4.3-11.54-25.64-14.44-8.87-.21,3.16,4.47,2.48,6.1-2.86,8.28-.09-4.09,1-8.68-4.4-10.48-7.75,5.09-19.34,50.52-26.21,24.57,6-8.06,7.9-25.45,17.92-21.86C596.29,853.33,593.48,847.11,592.55,841.11Z"/><path class="cls-1" d="M260,510.17c11.22,8.7-13.45,14.49-19,18.91-11.41,6.41,3.5,12.08,6.56,18.76,5.57,11.16,13.92-5.94,20.3-1,1.38,5.11-11.48,6.15-6,12.41,30.09,20.5-17,34.69-32.08,47.76-13.74,2.38,10.11-10.64,7.09-13.88-5-3.92-9.22,5.74-14.81,5-12.71,1.51-2.7-8.39,3.41-10.26,7.42-3,1.24-12.85-5.28-9.13-4.09,3.31-23.24,11.91-13.69,1.19,1.36-4.83,9-5.49,8.23-10.36-5.65-6.46-16.57,9.65-22.1,2.11-1.5-4,3.08-3.8,5-5.3,20.55-10.17-2-14.85-12.26-6.85-10.35.71,2.22-7.37,5.67-9,2.69-1.74,5.63-3.33,3.08-7.4-6.48-10.2-17.15,8.27-24.32,3-2-5.18,27.65-14,8.31-15-49.63,24,64.9-48,70.85-33,12.27,12.44-19.74,12.62-20.26,22.82C238.44,527.41,250.09,508.78,260,510.17Z"/><path class="cls-1" d="M510.8,882.13c-2.39.86-3.55,5.55-6.09,2.39-7.52-6.21,14.93-16.94,2.22-23.58-6.58-5.82-15.53,22.11-16,5.83,7.4-5.67,10.68-24.17-2.66-17.64-3.15,2.92-5,9.72-9.45,10.1-10.26-5.67,6.26-13.52,3.7-19.94-3.22-4.11-4.77-4.87-7.81-.61-2,3.47-7.73,9.35-11.9,5.71-2.27-2.5.2-3.77,1.49-5.29,2.31-2.18.65-5.9,3.56-7.69,4.4-5-4.39-12-6.87-5.65-2.16,6.57-17.29,9.67-11,.06,3.49-2.73,13.54-17.54,3.2-11.66C421.49,853.45,487.66,756,488.63,768c-7.41,12.55-9.1,10.83.93,23.07,9.83,16.12,19.17-21.9,29.86-18.76,0,9.22-9,19.54-14.7,27.88.21,23.12,20.7-18.81,28.21-15.21,2.46,8.1-11.14,17.13-14.73,25.07-15.65,8.74,59.18,45.82,30.89,52.65-7.09-2.67-11.16,7.73-13.06,13-1,5.14,7,6.21,4.67,11.37-3.18,5.53-6.43,15.47-11.16,18.07-3.69-4.93,11.72-17.23,0-17.22-3.66,2.35-7.3,10-12.05,8.33C513.08,893.81,532.09,864.15,510.8,882.13Z"/><path class="cls-1" d="M289,662.1c-3.51,0-5.34,6.53-8.77,2.62-4.66-7.66,15.16-9.41,10.95-17.84-5.22-10.25-14.21-.34-19.57,4.24-13.12,3.75-.69-9.58,4.76-11.92,5.47-2.73-1.33-12.7-6.49-10-5.58,1.31-12.63,12.62-17.54,6.54-1.73-7.2,15.89-7.45,13-15.8-6.11-10.9-14.17-1.65-20.75,2.51-24.85-2.37,29-27.78,35-34.59,19.8-19.21,62.59-30.08,17.63.88-6.13,11.11,39,42.66,46.65,56.28,10.8,7.26,13.81,24.66,27.45,12.6,1.55,0,2.67.59,1.58,2.44-12.62,9.62-72.77,74-43.5,28-6.87-9.49-16.32,14.91-22.44,3.28-1.82-3,3-2.91,2.91-5.34-.14-3.35,3.19-3.82,4.78-5.74,5.17-2.75-1.67-11.17-6.26-7.27-2,1.59-3.39,4.18-6.46,4.06-3.53,3.43-11,4.38-9-3,1.34-5.76,15.85-9.15,7.57-15.22C295.9,654.93,293.61,662.91,289,662.1Z"/><path class="cls-1" d="M506.7,642.07c22.38,6.69-40.25,24.85.51,40.39,10.92,9.19,21.06,18.55,5.22,29-1.51-2.57,3.7-5.81-.28-7.86-10.52,1.57-10.59,19.25-21.49,23.42-20.71-5.12,14.67-21.72,10.41-32.21C493,693.72,471,734,472.85,707c3.16-8.13,21.42-16.69,14.86-25.4-10-2.92-15.75,16.68-24.92,20.23-19.8-6.94,19.29-22.63,12.47-33.08-8.76-9.27-30.51,36.24-30.71,11.48,5-7.32,19.69-15.94,17.36-24.64-11.38-7.88-21.63,29.57-32.13,16.14-5.93-9.33,36.1-29,12.9-30.47-8,3.74-23.4,31.88-27.71,12.91,4.58-8.38,19.23-14.13,19.51-23.29-6.62-.92-32.47,32.53-25.42,11.35,8.68-5,56.42-57.39,52.68-41.68-4.57,6.19-19.1,16.14-14.68,23.13,6.27,5.61,10.9,17.8,18.14,6.8,7.92-12.8,33.6-23.34,14.73-1.28-1.19,5.55-21.8,19.79-5.34,17.87,7.15-4.93,16.08-17.75,23.83-17,2.82,7.23-13.5,15.92-15.72,24.09C480.74,675.19,499.86,642.64,506.7,642.07Z"/><path class="cls-1" d="M119.25,504.19c24.53,14.13-19.49,16.55-7.53,22,5.32-.24,25.47-16.9,20.41-2.1-1.13,3.77-20.5,10.22-10.66,11,55.9-21.15-27.11,22.63-40.73,27.47-18.38-2.61-37.89-15.7-55.6-23.54C10.56,528.49,99,487.18,108.5,488c1.39,7.85-10.41,8.05-14.47,13.1,7-.36,18.66-12.52,22.16-1C102.83,513.11,101,506.44,119.25,504.19Z"/><path class="cls-1" d="M578.68,879.13C583.41,901.29,596,862,601,855.36c8.4-8-6.08,18.95-8.84,23.57-9.38,12.55,8,22.69,17.28,28.13,10.47,19.07,14.23-27.85,25.12-26.89,9.13.31-40.45,107.58-40,84.68,1.21-4.53,8.15-13.66,1.39-16.18-6.83-.61-1.43,8.76-6.3,10.42-4.61.84-7.09-2.05-6-7-.12-2.65,5.54-15.91-1.41-9.48-1.89,7.46-13.08,7.54-9.58-1.52.85-3.93,4.84-17.81-2.85-8.61-1.38,2.51-4.38,6.37-7.79,4.61-6.33-5.52,4-13,.18-18.27-4.53,0-4.24,7.65-8.51,9.27-8.51-2.07-5.88-10.18-2.12-15.27,2.85-3.75-1.88-6.31-3.41-2-25.25,25.89,31.64-71.5,37.17-76.17C593.23,849.14,560.05,865.15,578.68,879.13Z"/><path class="cls-3" d="M704.62,700c-6.59-5.74-6.37-9.8-3.57-17.29-7,14.85-13.28-3.17-21.56-8.68,3.21-9,10.92-20.84,18-27.13,6.09,35.23,82.73-168.89,104.73-183.78-2.33,54.77-59.18,125.78-79.34,185.91-2.86,9-12.45,17.86-2.44,25.5C721.64,681.52,713.42,705.82,704.62,700Z"/><path class="cls-1" d="M707.55,702c35.38-74,62-155.1,96.89-230.72,38.83-1.09-25.11,82.22-29,107.58C761.17,595.44,725.2,731,707.55,702Z"/><path class="cls-1" d="M835.2,495.24c4.55,5.58,6.07,9.46,1.92,16.69C818.75,551.55,805.44,593.35,790,634c-12.44,16.47-29.8,116.62-48.49,101.09,21.54-54.31,39.85-110.61,59.78-165.47,10.22-22.78,18.44-46.37,29.55-68.74-15.16,32.36-30,64.59-45,96.94-19.88,38.46-34.39,82.92-57.43,118.24,20.83-57,49.94-111.73,73.88-167.83C812.21,537.06,819.35,483.91,835.2,495.24Z"/><path class="cls-1" d="M658.53,654.13c35.88-74.45,74.25-148.2,110.87-222.88,27.71,15.69-7.66,42.6-14,63.45C733.06,522.42,682.23,657.92,658.53,654.13Z"/><path class="cls-1" d="M526.77,631.21c-4.45,5.93-13.14,5.32-8-3.07-.43-6.9,14.79-10.55,9.91-17.71-8.11-2.45-11.37,12.37-19,13.63-14.37-3.4,7.14-14.39,9.44-20.76,1.72-26.48-28.11,23.75-25.65,1.56,3.38-5.46,16.45-11,13.16-17.62-6.92.2-9.42-15.37-16.74-9.17-2.29,1.29-23.05,17.78-17.46,7,9.72-6.17,53.92-57.13,53-42.68-6.56,7.63-21,17.19-20.44,26.25,14.42,33.06,24.81-13.8,41.3-11.44,2.73,9.2-16.56,18.12-21.66,26.64-6.21,3.64.89,13.57,6,8.05,4.35-4.2,32.39-38.28,25.74-17.88-5.21,9.11-25.72,18.17-20.49,29,12.64,6.47,21-26.87,33.14-23.12,2.56,11.76-36.37,27.15-16.36,37.21,20.71,22.22,22.51-2,37-16.93,10.57,7.72-33.88,54.62-41.75,62.33-2.47-3.86,5.65-5.77,3.81-10.33.82-7.54,12.32-10.33,2.63-17.22C536.92,623.17,545.34,614.75,526.77,631.21Z"/><path class="cls-1" d="M207.1,498.14c-11.84,8.37-80,44.63-43.81,13.56-16.18.7-14.06,12.68-28.89-6.6-10.92-5.12,16.73-17.24.55-12.69-3.45,2.53-9.4,3-12-1.15-.09-6.44,8.66-6.37,12.1-11.18-54.22,14.87,47-32.2,61.06-36,26.67.67-36.61,17.19-15.25,17.62,23.43-15.74,45.54-9.45,8.74,5.22C180.74,476.38,208,486.6,207.1,498.14Z"/><path class="cls-1" d="M697.61,647.08c-64.49,84.28,78-160.45,91.71-188.76C828.62,442,708.15,629.81,697.61,647.08Z"/><path class="cls-1" d="M600.63,695.13c-21.18,24.26-7.3-4.53-1.68-14.69,3.35-13.57-13.16,7.55-16.21,10.11-13.14,7.23-1.06-16.07,3.81-19.73,5.94-5.62-10.72-24.26-20.19-2.26-20,16.21,32.17-55.65,38.16-53.77-.2,12.64-34,27.45-11.57,37,11.74,8.57,16.49-23.75,27.88-21.19C629.2,642.73,604.32,654,607,665.18c9.92-1.87,13.68-23,24.31-23.77,9.41,18-30.44,29.91-.22,46.87,10,5.5,14.44-20,22.46-25.2,6.83,5.45,7,5.53,3.05,12.81-12.06,17.8-20.41,46.51-34.69,58.69-14.3-7.47,11.05-22.21,7.72-32.44C616,697.3,613.9,677,600.63,695.13Z"/><path class="cls-1" d="M621.65,1009.12c17.34-3.82-5.55,22.25-1,28.09,41.33-79.58-16.65,93.43-28.89,60.77-6.85-19.4-21.56-43.59-10.16-63.26,7.58-9.94,14.39-43.81,24.09-43.75-3.2,10.7-16.79,23.58-1.67,30.65C615.21,1037.16,615.36,1016.61,621.65,1009.12Z"/><path class="cls-3" d="M391.88,402.13c-6.54,14.32-43.77,23-60.29,34.27-27.32,2.18,12.28-12.79,16.91-17.51-8.53-17.78-33.07,18.49-41.11-.23,2.93-4.45,10.4-6.27,15.61-8.7-36.33,15-15.63-7.89,7.29-12.88-12.84-1.35-26.6,16.62-37.21,8.05,22.2-11.28,50.81-27.1,74.84-28.5,26.9,22.54,9.6,19.35-10.42,32.4C366.37,422.3,380.79,400.94,391.88,402.13Z"/><path class="cls-1" d="M529.71,764.12c-13.93.06,4.11-14.15,4.92-20.07,0-5.74,8.94-9.26.9-13.59-2.15-4-5.57-9.77-10.76-9.27-13,9.95,5.43-14.71,9.92-17.5,2.09,1.88-2.11,6.1,2.15,8,13.74,20.9,17-2.5,29.38-9.66,17.8-6.16-8.19,19.47-9.46,26.18,4.09,17.07,13.73-10.88,21-13.1,16.43-11.49,1.08,19-5.19,23.66-3.88,10.58,15.13,19.44,21.61,27.2,7.36,14.41,22.57-43.53,21.66-15.2-12.66,20.13-22.51,46.06-36.36,63.45-3.69-5.85,10-14.34,7.21-21.12,8.92-13.64-5.1-19.41-14.22-28.79-12.29-20.18-17.08,4-27.73,10.82-23.22,4.72,12.89-24.37,6.49-31.23C541.29,741.68,538.57,761.45,529.71,764.12Z"/><path class="cls-1" d="M677.54,338.21c-46.18,31-322.62,203.3-142.76,79.1C568.23,404,653.42,316.64,677.54,338.21Z"/><path class="cls-1" d="M616.53,983.05c-18.85-5.19,23.55-70.55,29-87-5,26.35-22.83,35.13,10.45,53.67,9.18-7.16,6.57-30,19.9-30.66-5,26.86-20.86,65.12-35.92,87.28-5.94-3.95,3.69-10.11.11-16.46-4.46,2.74-3.37,10.66-7.73,10.76-10-2.85,1.74-12.64-.76-17.74-3.79.55-4.12,7.38-6.61,10.64C611.14,989.14,629.16,967.64,616.53,983.05Z"/><path class="cls-1" d="M762.36,422.31C713.7,483.23,665,547.37,614.29,605.11c-1.78,3.56-6.5.64-3.6-2.55,21.87-29.56,44.18-58.8,66.47-88C696.85,498.94,743.36,401.27,762.36,422.31Z"/><path class="cls-1" d="M533.69,506.14c26.74-18.41,151.23-174,164.8-147.23C688.69,371.89,489.87,558.15,533.69,506.14Z"/><path class="cls-3" d="M728.41,716.07C765.83,644.36,794.46,568,833,497c-25.56,69.31-64.11,139.92-82.74,208.82,4.83,8.25-3.75,22.66-8.74,29.31-4-5.11-14.29-8.72-8.09-16.73C730.12,723.59,723.42,720.47,728.41,716.07Z"/><path class="cls-1" d="M456.71,668.08c-1.24,7.29-15.36,10.08-11.15,17.36,2.64,4.48,13.33-9.29,6.67,1.29-3.54,12,10,2.82,13.15-2.33,7.69-4.64-1.82,6.44-4.56,8-8.29,5.76,6.69,15.17,13,14.73-5.22,12.22,15.18,7.36,6.45,20,.77,4.54-5,4.37-6.52,8-4.11.69,1.67-5.64-1.83-6.72-7.94,4-21.33,16.23-21,25.84-11.86-6,12.33-20.33,16-27.71,2.28-16.46-16.85,9.41-21.29,13.24-5.76,6-5.61,5.76-11.73.16-10.56-12,25.73-22.48,17.36-33.72-3-2.64-4.69,3.28-7.54,3.83-2.07-3.94,6.51-6.17.65-10.26-5.79-4.76-9,7.21-5.49-6-3.92-3.79-7.14,2.26-6.13-5.39-5-7.66-10.31,2.55-14.88,5.15-5.11-.24,4.47-6.73,5.77-8.7,7.5-26.84-36.17,35.73-32.59,10.59,9.45,7,16.93-11.79,24.61-16.37,7.15-6.05-11.13-15.84-14.75-21.82-.21-3.11-.77-6.24,4.28-3.63,7.68-1.48,12-16.11,21.58-19.53-3,9.3-21.63,16.87-6.81,26.13,9.42-2.31,19.37-28.51,29.83-18.49,6,10.86-20.17,18.6-19.59,28.7C445.37,687,442.3,675.57,456.71,668.08Z"/><path class="cls-1" d="M425.81,611.1c-6.26,12.62-22.09-15.69-31.52-20.7C377.18,577.29,360,535,337.83,560.16c-46.32,16,34.85-35.17,44.25-41.51,18.59-2.67-7.32,16.31-13.17,19.24C360.19,552.64,428.59,590.07,425.81,611.1Z"/><path class="cls-1" d="M290,415.16c11.9,12.69-20.88,12-22.38,20.38,34.23,32.49,7.77,35.9-12.66,5.15-11-3.3-28.58,19.12-37.06,6.7,5.66-9.47,23-8.49,31.06-17.16-11.68-.32-20.76,9.4-32.37,11-23.78.85,65.13-36.14,68.14-31.25-2.3,10.36-21.14,8.21-27.77,16.79C269.14,425.5,278.11,417.46,290,415.16Z"/><path class="cls-1" d="M415.81,504.12c-67.58,38.29,58.65-55.29,43.29-28.6-10.32,7.21-38.27,15-17.05,26.22,14.81,18.09,35.81,32.72,46.72,52.39C465.74,570.62,438.44,494.8,415.81,504.12Z"/><path class="cls-1" d="M663.57,855.09c11.79-36.23,26.43,39.42,39.7-15.91.79-5.41,11.36-8.35,8.14-.32-6.63,11-22.94,76.09-32.64,65.59C685.73,869.46,693.49,882.68,663.57,855.09Z"/><path class="cls-1" d="M701.55,772.14c5.27-30.74,25.62,28.15,30.73-4.22,2.51-5.59,8.87-29.94,12.42-13.18-9.88,21.44-15,52.26-29.12,68.63-7.46-5.73,4.8-18.27,5.76-26C724.71,786.9,704.92,781.7,701.55,772.14Z"/><path class="cls-3" d="M629.58,862c-7.08-6.65-7.06-6.64-2.5-16C676.44,737.12,665.38,801.41,629.58,862Z"/><path class="cls-3" d="M691.37,863.07c-21.51-11.5-9.54-28.82.31-44.86C713.53,822.18,699.12,850.45,691.37,863.07Z"/><path class="cls-1" d="M622.49,796c-3.76,15-10.88,4.09-15.87,12.8-2,6.95-7.52,9.68-10.94,15-.87,1.06-.62,3.73-3.29,2.45-5.45-17.6,63.21-111.22,29-45.24C616.41,789.1,616.49,789.15,622.49,796Z"/><path class="cls-3" d="M725.5,780.08c-19.94-10.6-8.94-29.88-.11-44.84C749.38,741.62,729.78,764.44,725.5,780.08Z"/><path class="cls-3" d="M695.49,723.09c-9.71,9.88-19.76,63.94-32.92,51C666.19,762.3,711.09,669.81,695.49,723.09Z"/><path class="cls-1" d="M675.38,800.65c-10.8,23.1-20.15,52.7-34.32,71.35C632.43,870.83,671.5,780.59,675.38,800.65Z"/><path class="cls-3" d="M707.68,779.14c18.79,4.25,10.64,35.18-1.14,35.73C691,804.4,703.71,792.79,707.68,779.14Z"/><path class="cls-1" d="M689.5,771.1c-30.25,52.29,7.93-38.92,16.36-51.68C721.78,711.69,691.07,761.72,689.5,771.1Z"/><path class="cls-3" d="M444.71,457.07c15.25.62-66,54.35-59.87,41,4.77-9.25,26.91-10.69,16-24C421,459.4,403.58,488.79,444.71,457.07Z"/><path class="cls-3" d="M609.47,907.06c-21.21-2.38,4.57-28.41,6.78-39.3C635.38,865.57,611.81,897.42,609.47,907.06Z"/><path class="cls-3" d="M270,569.15c-18.51-11.31,15.61-26.12,23.8-22.85C305.58,555.78,277.13,566.39,270,569.15Z"/><path class="cls-3" d="M593.58,894c-16.71-8.06,8.11-27.24,9.5-39.67C621.23,856.07,596.18,883.88,593.58,894Z"/><path class="cls-3" d="M507.73,782.09c-10.71,19.61-14.85,15.91-26.84.78,7.7-5.17,21-38.27,27.79-18.91C502.48,776.65,475,808.21,507.73,782.09Z"/><path class="cls-3" d="M559.54,622.13c-17.54-4.57,9.47-26.62,16-32.19C594,592.55,565.49,617.48,559.54,622.13Z"/><path class="cls-3" d="M510.35,576c-15.48-10.06,12.91-25.14,20.34-31.91C546.71,552.74,516.31,569.34,510.35,576Z"/><path class="cls-3" d="M463.35,524.13c-18.47-6,12.26-23.21,19.44-28C501.27,502.4,470.21,519.36,463.35,524.13Z"/><path class="cls-3" d="M646.57,944.1c-4-1.49-7.66-6.85-5.19-10.76C661.6,877.45,666.86,910.07,646.57,944.1Z"/><path class="cls-3" d="M474.53,535.14c-19.34-5.35,12.17-23.42,19.25-28C510.76,514,481.18,531.16,474.53,535.14Z"/><path class="cls-3" d="M451.78,513.13c-16.13-9.29,11.52-21.34,19.15-26.94C492.32,488.06,458.62,509.83,451.78,513.13Z"/><path class="cls-3" d="M483.72,547.15c-15.22-8.74,11-21.76,18.22-27.95C524.25,517.84,490.86,544.62,483.72,547.15Z"/><path class="cls-3" d="M655.38,951.05c-14.11-6.86,4.42-24.79,5.88-36.5C678.67,892.84,661.87,946.53,655.38,951.05Z"/><path class="cls-3" d="M592.58,652.09c-16.47-4.31,10.06-27.62,15.43-33.44C620.52,626.08,598.54,646.07,592.58,652.09Z"/><path class="cls-3" d="M343.1,646c-1.17-6.11-17.73-10.36-11.89-15.8,5.64,5.44,6.08,5.52,12.09.21C378,600.49,367.17,631.71,343.1,646Z"/><path class="cls-3" d="M441.47,502.12c-17-3.35,23.58-36.79,27.26-21.11C462.05,489.63,450.78,496.48,441.47,502.12Z"/><path class="cls-3" d="M528.49,828.06c-14.8-7.18,4-25.14,11.09-32.1C558.46,793.71,534.15,822.5,528.49,828.06Z"/><path class="cls-4" d="M313,612.27c-17.7-7.47,9-22,17-26.14C347.13,591.76,319.65,608.61,313,612.27Z"/><path class="cls-3" d="M565.78,758.08c17.46,1.8-4.69,25.26-10.2,31C537.88,786.85,560,763.82,565.78,758.08Z"/><path class="cls-3" d="M578.68,879.13c-12.9-8.6,5.65-24.41,7.82-35.41C607.66,833.4,583.51,871.87,578.68,879.13Z"/><path class="cls-3" d="M540.34,839.06c-17.46-3.26,14.18-47,18.29-27C554.41,821.32,547.77,832.23,540.34,839.06Z"/><path class="cls-1" d="M540.7,887.08c.8-3.44-3-3.78-4-6,4.57-2.34,10.18-11.66,9.17-16.33-12.38,15.35-15.1,12-2.26-3.18,3-4,7.08,3.53,10.09-1.1,3.52-4.1-2.9-5.67-3-9.41,9.55,0,11.43-15.44,17.68-23.61C588.1,810.26,544.19,880,540.7,887.08Z"/><path class="cls-3" d="M626.4,684.12c-16.06-6.32,5.67-25.13,11.19-33C655.89,652.41,631.79,677.46,626.4,684.12Z"/><path class="cls-3" d="M382.18,577.14c18.19,5.52-10.78,22.14-17.32,26C346.82,597.07,375.31,582.07,382.18,577.14Z"/><path class="cls-3" d="M552.36,850c-15.78-2.25,4.32-26.39,10.34-33C580.42,817.68,557.42,843.81,552.36,850Z"/><path class="cls-3" d="M576.75,768.08c16.46,4.14-4.56,25.34-10.25,31.95C549.83,796.47,571.2,774.39,576.75,768.08Z"/><path class="cls-3" d="M375,552.16c-20.17-5,23-36.74,24.8-19.11C393.8,540.58,383.37,547.61,375,552.16Z"/><path class="cls-3" d="M386.69,564.09c-17.49-8,9.75-20.5,17.21-26C423,543.77,393.56,558.75,386.69,564.09Z"/><path class="cls-3" d="M590.23,764.09c-13.78-5.62.09-17.75,4.41-25.5C616.39,714.3,602,757.21,590.23,764.09Z"/><path class="cls-3" d="M398.77,576.11c-17.58-6,13.51-28.58,22-23.77C424.73,562.12,405.6,572,398.77,576.11Z"/><path class="cls-3" d="M580.23,753.11c-16.18-4.69,5.15-25,10.54-31.94C607.25,725.42,585.9,746.55,580.23,753.11Z"/><path class="cls-3" d="M263.14,449.14c24.46,11.55-50.73,30.14-24.52,9.85C246.75,456.22,254.85,449.79,263.14,449.14Z"/><path class="cls-3" d="M410.76,588.14c-17.3-6.63,9.94-21.55,17-26C444.87,566.83,417,585,410.76,588.14Z"/><path class="cls-3" d="M543.45,718.1c-17-4.85,6.62-22.47,10.81-30.81C571.51,690.2,549.69,712,543.45,718.1Z"/><path class="cls-3" d="M506.65,683.1c-15.93-2.87,15.42-42.59,19.94-23.19C522.32,668.39,513.82,677,506.65,683.1Z"/><path class="cls-3" d="M637.57,934.08c-13.05-8.6,8.06-25.7,7.95-38.06C662.08,884.5,643.09,929.25,637.57,934.08Z"/><path class="cls-3" d="M358.29,553.13c21.62,2.4-23.94,37.54-23.41,18C340.74,563.81,349.63,557.6,358.29,553.13Z"/><path class="cls-3" d="M370.76,565.07c16.77,6.67-10.24,20.67-17.07,25C334.8,586.53,363.61,568.86,370.76,565.07Z"/><path class="cls-3" d="M529.64,722.07c15,6.56-5.61,24.06-11.86,30.14C499.89,750.9,523.82,727.37,529.64,722.07Z"/><path class="cls-5" d="M575.52,589.94c-8.08,5-18.6,31.85-27.47,21.68C550,606.56,574.88,571.2,575.52,589.94Z"/><path class="cls-3" d="M589.63,600.14c-2,9.24-33.32,46.32-24.93,19.69C572.1,614.7,579.67,590.81,589.63,600.14Z"/><path class="cls-3" d="M255.89,440.1C269.36,452,239,456.74,230,461.05,213.37,450.47,247.63,443.38,255.89,440.1Z"/><path class="cls-3" d="M586.65,777.09c12.84,7.63-5.15,20.2-8,29.78-1.89,7.27-8.69,1.34-8.06-3.75C573.79,794.76,580.05,782.68,586.65,777.09Z"/><path class="cls-6" d="M504.64,784.06c-4.53,2.5-5.42,13.43-11.82,9.81-3.32-2.58-3.38-4.81-.61-8.18C502.25,766.57,526.25,753.12,504.64,784.06Z"/><path class="cls-6" d="M519.57,654c-7.08,5.32-13.41,22.18-22.63,19.81C488.72,667.74,519.73,636.06,519.57,654Z"/><path class="cls-3" d="M517.64,694.07c-14-7.63,6.45-23.5,13.16-29.92C547.46,668.25,523.91,688,517.64,694.07Z"/><path class="cls-6" d="M360.74,617c-7,12.23-44.68,29.42-21.62,5.12C345.48,618.24,356.41,603.75,360.74,617Z"/><path class="cls-3" d="M421.76,600.12c-16.05-5.65,19.92-36.54,24-20.14C439.74,587.18,430.31,597.74,421.76,600.12Z"/><path class="cls-3" d="M313,612.27c6.43-3.81,28.59-30.38,28-12.16C335.76,606.53,318.24,627.58,313,612.27Z"/><path class="cls-3" d="M407,601.13c15.11,8.62-9.77,21.66-17,27.14C372.38,623,401.09,606.46,407,601.13Z"/><path class="cls-3" d="M452.67,631.11c-14.48-8,8.79-23.18,16.07-28.06C486.46,607.27,458.7,625.44,452.67,631.11Z"/><path class="cls-3" d="M394.78,590.06c16.42,7.23-10.87,20.54-17.87,26.13C359.22,609.5,387.6,594.89,394.78,590.06Z"/><path class="cls-3" d="M271.24,458.16c16.61,4-29.52,29.35-30.06,14.25C249.5,466,261.3,460.11,271.24,458.16Z"/><path class="cls-3" d="M354.9,657.11c-13.33-8.44,11-20.88,18.18-25.89C390.67,635.33,361.78,655,354.9,657.11Z"/><path class="cls-3" d="M675.34,848.09c-13.17-5.8,4.76-23.23,6.4-33.21C697.84,796.56,681.94,843.9,675.34,848.09Z"/><path class="cls-4" d="M378.77,778.19c-5.34,13.56-30.15,22.34-18.5,2.91C366.23,774.35,373.06,766.3,378.77,778.19Z"/><path class="cls-3" d="M330,586.13c-8.7,3.65-24,28.18-30.06,12.83C306.12,593.11,324.12,570.61,330,586.13Z"/><path class="cls-4" d="M574.63,718.08c-3.35,6.52-19,29.45-17.87,10.12,7.82-5.36,10.72-21.94,20.26-21.92C582.84,710.23,574.88,713.83,574.63,718.08Z"/><path class="cls-3" d="M207.1,498.14c-13.62-9.68,23.09-25.63,27.55-15.66C231.69,490.31,215.26,493.09,207.1,498.14Z"/><path class="cls-3" d="M201,488.15c-18.47-7.4,23.76-28.74,26-13.15C220.17,480.87,209.78,484.78,201,488.15Z"/><path class="cls-3" d="M192,478.14c-15.48-8.61,13.75-16.93,21-19.12C229.13,468.78,200.21,475.2,192,478.14Z"/><path class="cls-7" d="M353.69,590c8.33-3.42,22.38-26.48,28.49-12.9C375.17,580.26,355.43,606.57,353.69,590Z"/><path class="cls-7" d="M438.91,574.16c-8.07,4-21.78,28.15-28.15,14C417.56,584.94,436.48,558.41,438.91,574.16Z"/><path class="cls-8" d="M318.59,619.09c7.64-3.51,24.83-29.82,29.38-14C341.81,610.89,325,632.33,318.59,619.09Z"/><path class="cls-3" d="M425.09,502.15c18,5.26-17.66,33.29-21.4,16.9C408.82,511.9,417.22,506.36,425.09,502.15Z"/><path class="cls-7" d="M517.77,752.21c6.07-7.47,11.34-15.56,17.89-22.63C550.87,731.1,516.36,771.83,517.77,752.21Z"/><path class="cls-7" d="M390,628.27c8.26-4.1,18.12-23.32,26.92-17.78C420,618.41,393.14,643.56,390,628.27Z"/><path class="cls-3" d="M435.78,513.13c15,7.86-6.51,18.93-14.1,22.94C404.14,531.89,429.37,516.25,435.78,513.13Z"/><path class="cls-7" d="M511.84,574.29c9.32-5.84,18.59-24.61,29-22.29C543,556.2,510.16,591.43,511.84,574.29Z"/><path class="cls-3" d="M622.61,697.08c14,4.52-2.16,16.48-5.6,24.77C600.58,734.62,614.15,699.88,622.61,697.08Z"/><path class="cls-7" d="M413.92,552.14q-11,8.65-22,17.29C375.24,564.28,422.92,532.93,413.92,552.14Z"/><path class="cls-3" d="M613,688.11c15.07,3.93-2.36,22.72-8.36,28.2C590.12,712.52,607.2,693.29,613,688.11Z"/><path class="cls-6" d="M539.58,796c-3.64,6.54-24.88,37.33-20.61,15.66C523.37,806.84,538.17,777.93,539.58,796Z"/><path class="cls-3" d="M446.81,525.14c17.56,6-15.83,32.78-20.08,16.94C430.63,535.7,440.21,528.39,446.81,525.14Z"/><path class="cls-7" d="M427.79,562.1c-8.45,3.6-23.12,28.06-29,14C406.31,572.94,423.05,548,427.79,562.1Z"/><path class="cls-7" d="M358.29,553.13l-23.41,18C317.47,569.15,357.32,538.72,358.29,553.13Z"/><path class="cls-6" d="M543.45,718.1c7.28-6.46,12.09-22.93,21.84-22.92C569.89,700.31,545.05,736,543.45,718.1Z"/><path class="cls-3" d="M323,624.23c9-3.55,21.47-24.32,29.88-16.09C350.34,615.81,328.23,638.31,323,624.23Z"/><path class="cls-6" d="M552.66,564.87c-2.31,4.94-33,40-27.31,20.15C533.19,580.88,545.71,555.9,552.66,564.87Z"/><path class="cls-3" d="M672.52,863c13.93,6.05-2,19.24-4,29.77C655,900.17,665.75,867.15,672.52,863Z"/><path class="cls-3" d="M457.7,537.1c17.82,4.5-15.62,32.56-20.05,16.9C441.88,547.53,450.7,540.29,457.7,537.1Z"/><path class="cls-7" d="M624.59,646.11c-6.15,5.74-9.72,21.15-18.26,20.88C598.45,660.46,636.84,619.1,624.59,646.11Z"/><path class="cls-6" d="M560.65,572.49c11.41,2-27.51,42.39-24.26,25.27C544,589.09,551.88,579.75,560.65,572.49Z"/><path class="cls-3" d="M678.6,871c16.25-1.68,1,24.12-3.24,30.91C660.28,897.86,678.7,880.88,678.6,871Z"/><path class="cls-3" d="M663.57,855.09c5-.9,7.35,5.06,5.74,8.86C655.4,903.37,646.83,879.94,663.57,855.09Z"/><path class="cls-3" d="M468.8,548.14c16.68,5.71-17.18,34.67-19.1,17C453.93,558.42,461.77,552.55,468.8,548.14Z"/><path class="cls-7" d="M551.72,806.08c-6.93,5.59-14.84,33.8-23.23,22C533.65,823,546.69,791.65,551.72,806.08Z"/><path class="cls-7" d="M562.7,817.05l-17,27C532.18,842.38,562.25,801.55,562.7,817.05Z"/><path class="cls-3" d="M725.39,735.24c-5.17,6-10.8,40.93-19,25.77C710.82,755.24,720,718,725.39,735.24Z"/><path class="cls-7" d="M565.78,758.08C558.9,763.55,553,785.52,544,780.89,542,776.26,563.53,742.73,565.78,758.08Z"/><path class="cls-3" d="M578.79,656.11c13.72,6.95-2.43,19.6-9.19,27C555.19,677.56,572.81,662.13,578.79,656.11Z"/><path class="cls-3" d="M495.67,577.09c16.95,4.52-14.49,34.68-16.83,16.17A49.69,49.69,0,0,1,495.67,577.09Z"/><path class="cls-7" d="M403.9,538.13c-8.17,3.94-21.8,25.85-28.88,14C382.12,548.77,400.71,524.77,403.9,538.13Z"/><path class="cls-7" d="M493.78,507.12c-8.31,3.74-24.92,29.53-30.42,17C471.88,520.68,487.15,495.83,493.78,507.12Z"/><path class="cls-3" d="M554.67,634.14c12.91,6.47-4.94,20.25-10.33,25.43C531.66,653.27,549.08,640.09,554.67,634.14Z"/><path class="cls-7" d="M451.78,513.13c29.21-28,40-20.18,5,4.47C454.34,517,452.93,515.2,451.78,513.13Z"/><path class="cls-3" d="M614.56,742.16c-4.89,6.37-14.86,40.39-21.25,23C598.41,758.64,604.75,733.92,614.56,742.16Z"/><path class="cls-7" d="M592.58,652.09c4.8-5.11,24.72-39.71,23-20.06C610,637,599.57,664.44,592.58,652.09Z"/><path class="cls-3" d="M545,625.13c4,7.19,10.86,6.64,1,14.26C526.39,665.4,526.24,633.6,545,625.13Z"/><path class="cls-7" d="M392.69,526.93c-5.23,6-38.36,28.85-24.55,10.11C374.52,534.87,389.45,516.21,392.69,526.93Z"/><path class="cls-4" d="M316.86,748.15c-13.29-2.85,9.17-25.4,14.42-17.3C335.41,737,321.61,745.32,316.86,748.15Z"/><path class="cls-3" d="M610.42,1029.05c-12.7-6-1.69-20.31,3.17-29C627.51,1002.53,614.76,1022,610.42,1029.05Z"/><path class="cls-3" d="M600.52,1020.07c-4.48-1.92-7.27-4.93-4.71-9.91C608.2,974.24,616.62,1002.52,600.52,1020.07Z"/><path class="cls-7" d="M590.77,721.17c-3.43,6.36-24.35,39-19.76,17.82C576.08,734.81,584.46,709.76,590.77,721.17Z"/><path class="cls-7" d="M501.94,519.2c-7.15,3.62-23.43,29.24-27.41,15.94C480.34,532.09,504.57,504.21,501.94,519.2Z"/><path class="cls-9" d="M530.8,664.15c-7.15,4.84-16.52,30.7-24.15,19C512.16,678.71,527,651.32,530.8,664.15Z"/><path class="cls-1" d="M707.46,702.22c17,19.95,31-52.61,43-66.12C745.64,647.31,719.58,733.74,707.46,702.22Z"/><path class="cls-10" d="M569.6,683.11c3.58-7.18,25.18-32.59,18.22-11.84C583.17,675.37,574.34,696.16,569.6,683.11Z"/><path class="cls-11" d="M422.85,600.12c8.34-4.14,18.4-23.49,27.06-18.06C446,587.5,427.24,616.16,422.85,600.12Z"/><path class="cls-7" d="M188.05,590.06c-6.09,2.46-15.23,13.29-20,4.19C164.94,586.21,197.7,575.24,188.05,590.06Z"/><path class="cls-7" d="M441.47,502.12c6.07-3.45,30.68-29.55,29.46-15.93C462.33,489.59,448.46,512.28,441.47,502.12Z"/><path class="cls-9" d="M446.81,525.14l-20.08,16.93C411.84,539.11,444,512.88,446.81,525.14Z"/><path class="cls-7" d="M468.8,548.14c-4.67,3.89-27,27.67-22.27,9.88C453,555,464.07,536,468.8,548.14Z"/><path class="cls-6" d="M476.89,900.41c3.9-4.38,6.79-16.22,13.13-15.37C501,889.52,480.79,916,476.89,900.41Z"/><path class="cls-6" d="M490.83,912.14c5.77-2.93,6.21-15.71,13.26-14C514.75,903,491.43,931.69,490.83,912.14Z"/><path class="cls-7" d="M484.73,600.13c4.39-5.57,26-25.85,19.71-8.2C498.44,595.6,489.45,614.07,484.73,600.13Z"/><path class="cls-7" d="M457.7,537.1c-5.95,3-23.22,26.27-24,11C440.63,545.18,453.45,524.86,457.7,537.1Z"/><path class="cls-11" d="M576.75,768.08c-5.38,4.63-16.71,35.25-21.17,21C561.38,784.46,570.81,756.48,576.75,768.08Z"/><path class="cls-3" d="M701.55,772.14c9.65,4.76-3.55,26.35-8.47,29.74C684.9,795.08,700,781,701.55,772.14Z"/><path class="cls-4" d="M588.72,684.19c18.11-24.85,11.42,2.58.14,12.58C577.37,703.65,585.44,688.64,588.72,684.19Z"/><path class="cls-7" d="M518.53,600.76c-1.76,6.21-22.78,26.78-19.29,10.4C504.43,608.11,513.85,590,518.53,600.76Z"/><path class="cls-7" d="M435.78,513.13C428.47,516.19,415,538,410,525.28,417.76,522.35,429.52,503.48,435.78,513.13Z"/><path class="cls-9" d="M637.6,651.08c-4,4.87-22,38.24-20.29,20.82C622.27,667.81,633,639.77,637.6,651.08Z"/><path class="cls-3" d="M270,569.15c11.74,3.76,22.19-18.47,32.51-13.07-6.93,10.34-23.38,17.86-34.44,25C275.35,576.46,271,575,270,569.15Z"/><path class="cls-11" d="M561.68,963.08c-2.9,3.57-3.06,13.88-8.88,12.43C541,967.63,572.67,935.36,561.68,963.08Z"/><path class="cls-6" d="M509,932c-10.15-3.58,1.27-14.45,4.27-19.82C527.11,904.63,515.61,930.3,509,932Z"/><path class="cls-9" d="M575.49,969.92c-2.08,5.75-11,27-13.33,11.07C563.6,973.9,577.81,950.89,575.49,969.92Z"/><path class="cls-6" d="M257.68,616.08c15,2.56-7.19,22.25-12.06,12.59C241.71,622.05,253.81,619.24,257.68,616.08Z"/><path class="cls-7" d="M467.87,754.19c6.2-3.47,9.47-16.37,16.52-15C488,747.34,449,782.31,467.87,754.19Z"/><path class="cls-7" d="M209,616c-4.5,6-23.56,9.82-13.86-.93C201.06,608.59,223.32,602.11,209,616Z"/><path class="cls-10" d="M540.59,937c-1.84,6.62-14.76,26-13.18,8.7C529.52,939.15,541.74,919.51,540.59,937Z"/><path class="cls-11" d="M613,688.11c-3.28,4.74-18.86,33.2-18,16.29C599.77,700.35,606.75,676.69,613,688.11Z"/><path class="cls-10" d="M468.74,603.05c-4.46,4.06-29.45,31.76-23.41,14.73C451.34,614.89,465.6,592.38,468.74,603.05Z"/><path class="cls-6" d="M427.58,784.81c.51,10.09-21.59,18.76-14.3,4.17C417.05,784.46,423.23,776.42,427.58,784.81Z"/><path class="cls-7" d="M637.57,934.08c5.64-7,10.67-37.26,18-32C650,909.33,646,940.28,637.57,934.08Z"/><path class="cls-6" d="M271,630.1c14.32,3.09-7.7,22.32-12,12.24C255.93,636.43,268,633.58,271,630.1Z"/><path class="cls-7" d="M580.23,753.11c5.52-4.42,15.33-31.3,20.4-22C595.09,736.08,586.6,763.29,580.23,753.11Z"/><path class="cls-6" d="M277.2,659.88c-13-3.55,6.07-21.27,11.66-13.32C292,652.44,281,656.7,277.2,659.88Z"/><path class="cls-7" d="M200.13,572.16c4.89-6.09,23.77-7.82,13.68,2.13C209.15,580,191.75,582.89,200.13,572.16Z"/><path class="cls-3" d="M483.72,547.15c12,1.66,18.2-17,28.9-20.1C522,528,484.92,564.73,483.72,547.15Z"/><path class="cls-7" d="M586.65,777.09c-5.11,4.57-15.2,34.44-20.15,22.94C572.29,795.22,580.68,769.48,586.65,777.09Z"/><path class="cls-7" d="M542.68,950.07c11.47-21.42,12-1.58,3.38,9.33C538.68,971.86,535.66,956.2,542.68,950.07Z"/><path class="cls-6" d="M353.79,712.35c-2.73,4.08-9.52,15.11-14.9,11.19C332.35,718.13,351,701.47,353.79,712.35Z"/><path class="cls-7" d="M512.62,527.05c-8.49,4.33-19.37,26.16-27.9,20.06C491.81,542.58,507.39,519.78,512.62,527.05Z"/><path class="cls-12" d="M588.76,841.2c-4.52,10.88-9.75,21.43-15.16,31.89C563.75,872.42,586.77,835.76,588.76,841.2Z"/><path class="cls-11" d="M502.77,757.11c-4.18,4.59-24.55,36.22-21.46,20C487.34,773.08,497,749.67,502.77,757.11Z"/><path class="cls-9" d="M580.58,994c-12.44,14.25-1.81-21.92,4.92-21.29C591.92,978.07,580,987.22,580.58,994Z"/><path class="cls-7" d="M455.57,572c6.86-3.45,16.27-22.57,23.44-15C477.72,562.5,459.69,582.64,455.57,572Z"/><path class="cls-6" d="M486.91,866.85c-10-2,.54-19.62,6.73-16.48C500.46,854.51,490.83,864,486.91,866.85Z"/><path class="cls-6" d="M510.8,882.13c2.13-7.74,14.07-10.83,11.47,0C519.17,892.2,505.5,894.66,510.8,882.13Z"/><path class="cls-3" d="M422.85,600.12c3.92,11.46,12.5-4.25,17.91-7C476.8,563.82,417.28,630.12,422.85,600.12Z"/><path class="cls-13" d="M530.69,544.08c-6,3.71-29,33.63-27.53,20.25C511.09,559.91,524.12,539.31,530.69,544.08Z"/><path class="cls-7" d="M222,598.1c4.91-1.86,11.7-11.41,16.43-5.59C242.27,599.54,215,610.81,222,598.1Z"/><path class="cls-4" d="M188,542.13c15.31.51-10.13,18.66-13.14,10C172.82,546.61,184.93,543.87,188,542.13Z"/><path class="cls-10" d="M150.21,552.17c-4.22,5.16-24.11,8.94-13.24-.54C143,546.31,165.36,540.64,150.21,552.17Z"/><path class="cls-14" d="M395.79,634c7.67-9.12,27.55-17.64,17.08-26.84C433.81,608.89,396.92,643.51,395.79,634Z"/><path class="cls-7" d="M222.25,579.29c13.74,1.5-7.69,17.44-12.12,12.26C205.76,585,219,582.12,222.25,579.29Z"/><path class="cls-15" d="M529.71,764.12c7.14-5.61,12.3-24.59,22-21.67C559.18,748.78,531.27,786,529.71,764.12Z"/><path class="cls-11" d="M324,580.07c-7.2,6-34,30.3-29.41,9.06C302.3,586,321.85,562.55,324,580.07Z"/><path class="cls-3" d="M459.69,576c5.51-6.39,14.87-11.42,18.47-18.44-3.66-2.81-5.05-5.53.62-2.74,2.34,3,5.07,2.23,7.93,1.27C478.51,560.45,466.8,581.94,459.69,576Z"/><path class="cls-3" d="M354.9,657.11c12.1,9.78,18.54-10,31-14C397.09,644.85,355.06,676.19,354.9,657.11Z"/><path class="cls-10" d="M452.67,631.11c7.78-4.92,25.32-35.31,29-15.07C472.59,621,461.84,646.66,452.67,631.11Z"/><path class="cls-7" d="M137.14,528.09c-6.31,1.75-14.44,11.81-20.45,7.63C114.78,530.68,140,517.27,137.14,528.09Z"/><path class="cls-6" d="M508.78,867.3c0,2-5.6,10.58-7.44,11.39C487.44,879.38,506.07,852.39,508.78,867.3Z"/><path class="cls-11" d="M394.78,590.06c-8.69,3.69-25.17,29.54-29.92,13.08C373.54,599.3,388.86,574.26,394.78,590.06Z"/><path class="cls-7" d="M506.7,642.07c-8.69,4.26-14.24,24-24.5,19.25C471.54,656.07,511.83,620.6,506.7,642.07Z"/><path class="cls-11" d="M373.08,631.23c-9.58,4.84-20.51,27.3-30,14.79C347.58,639.43,371.35,613.15,373.08,631.23Z"/><path class="cls-7" d="M490.66,727.05c6.75-7.4,11.62-16.82,20.56-21.7C510.88,711.57,494.39,735.28,490.66,727.05Z"/><path class="cls-11" d="M400.93,657.26c15.6,5.36-13.43,27.26-20.76,29.33C369.84,676.61,396.34,665.86,400.93,657.26Z"/><path class="cls-7" d="M425.09,502.15c-13,14-41.3,25.35-9.28,2C418.53,502.87,423.31,497,425.09,502.15Z"/><path class="cls-7" d="M527.84,724.15c-3.58,4.22-21.41,31.83-18.69,18.43C513.24,738.88,526.37,713.34,527.84,724.15Z"/><path class="cls-7" d="M387.82,804.05c-5.88,11.33-19.83,3.72-14.87-5.91C384.31,781,403.56,785.4,387.82,804.05Z"/><path class="cls-16" d="M552.36,850c6.2-6.28,12.45-27.28,19.1-26C566.29,829.24,558,860.46,552.36,850Z"/><path class="cls-16" d="M555.64,687.06c-4.24,4.13-20.87,34-21.1,20.87C540.53,703.66,550.22,681.36,555.64,687.06Z"/><path class="cls-7" d="M535.52,650c5.72-3.65,13.49-22.94,19.15-15.89C549.61,637.62,540.15,660.42,535.52,650Z"/><path class="cls-7" d="M604.68,716.31c5-4,12.91-27.21,17.93-19.23C617.48,701,609.76,726.47,604.68,716.31Z"/><path class="cls-15" d="M675.34,848.09l14.28-33C696,812.65,678.74,856.22,675.34,848.09Z"/><path class="cls-7" d="M239,642c-6.78,4.49-19,16.45-23.74,3.58C216.82,635.54,244.48,624,239,642Z"/><path class="cls-7" d="M274,690c-5.37,10.37-22.68,2.66-13.49-5.66C270.41,671.56,292.15,674.61,274,690Z"/><path class="cls-17" d="M201,488.15c7.64-2.29,23.25-17.29,28.17-10C220.88,481.14,208.34,492.94,201,488.15Z"/><path class="cls-18" d="M271.24,458.16c-10.28,2.36-24.23,16.9-33.21,12C248,468,263.52,452.87,271.24,458.16Z"/><path class="cls-7" d="M298.88,555c-7.31,3.52-21.85,20.38-27.78,14.15C278.76,566.73,295.05,548.61,298.88,555Z"/><path class="cls-7" d="M600.52,1020.07c2.58-4.52,9.54-31.4,13.07-20C609.91,1004.86,607.61,1026.33,600.52,1020.07Z"/><path class="cls-4" d="M435.74,794c9.76,1.36-4.55,17.36-8.5,15C421.84,804.9,432,796.37,435.74,794Z"/><path class="cls-7" d="M264,672.07c-6.33,4.71-14.42,14.52-19.52,4C239.65,666,277.21,652.93,264,672.07Z"/><path class="cls-7" d="M283,709.14c-23.75,6,2.26-32.22,12-15.29C297.56,700.66,285.44,703.38,283,709.14Z"/><path class="cls-15" d="M691.37,863.07c5.21-7.08,9.14-34.08,16-31.24C703,839.73,698.11,864.09,691.37,863.07Z"/><path class="cls-10" d="M578.58,574.09c3.3-3.1,8.21-13,13.11-9.67C596.89,569.14,580.28,585.68,578.58,574.09Z"/><path class="cls-10" d="M147.22,516.21c5.47-1.37,13.05-10.42,18-5.35C167.13,516.05,143.74,526.38,147.22,516.21Z"/><path class="cls-15" d="M255.89,440.1c-8.79,1.39-29.27,18.62-32.85,11C233.29,448.94,246.86,436.18,255.89,440.1Z"/><path class="cls-17" d="M213,459c-22.86,14.31-43.56,13.87-6-.93C209,458.54,211.59,455.05,213,459Z"/><path class="cls-15" d="M626.4,684.12c6-6.22,14.15-28.28,20.26-25.91C641,664.31,633.47,688.67,626.4,684.12Z"/><path class="cls-7" d="M525.79,891.17c12.33-15.69,8.61,16.89-2.26,11.34C519.06,898.23,525.37,895.42,525.79,891.17Z"/><path class="cls-7" d="M247,660.07c-6.65,10.19-27,4.31-11.83-6.86,3.6-.66,5.92-3.45,8.65-5.46C254.36,643.84,256.15,655.2,247,660.07Z"/><path class="cls-19" d="M655.38,951.05c2.73-7.37,16.54-45.72,15.2-29.91C665,929.36,663.34,948.29,655.38,951.05Z"/><path class="cls-12" d="M583.6,598c-6.57,5.38-17.84,30.45-24.06,24.12C567,616.64,576.81,595.61,583.6,598Z"/><path class="cls-20" d="M495.67,577.09c-6.44,3.69-13.47,18.54-20.58,15.52C477.62,588.4,490.93,569.86,495.67,577.09Z"/><path class="cls-9" d="M545,625.13c-4.07,8.26-27.93,30.21-19.56,8.65C529.82,628,539.67,611.39,545,625.13Z"/><path class="cls-11" d="M460.72,875c-13.71,16.81-15.54-7.46-4-15C468.93,853.09,467.17,869.05,460.72,875Z"/><path class="cls-15" d="M608.74,740.22c-5.84,5.52-10.88,28.6-18.51,23.87C595.05,758.29,603.44,736.62,608.74,740.22Z"/><path class="cls-9" d="M481.63,629c-2.25,6.4-16.17,10.73-11.43,17.93,6.67,4,35.44-33.28,13.47-19.91,25.15-21.52-6.19,32.18-15.07,20.69C462.2,641.86,477.17,632.2,481.63,629Z"/><path class="cls-16" d="M658.43,886c3.93-4.8,8.83-31.41,14.09-23C668.8,867.7,663.17,895.3,658.43,886Z"/><path class="cls-12" d="M230,461.05c10-2.12,25.44-16.79,33.18-11.92C253.12,451.29,237.91,465.87,230,461.05Z"/><path class="cls-7" d="M354.77,774c-14.36,15.75-19.7-10.3-3.66-14.73,4.25-6.47,8.08-2,11.82,2.51C365,766.7,355.74,769,354.77,774Z"/><path class="cls-13" d="M192,478.14c9.12-2.1,21.1-13.63,29-10.1C213.25,470.45,196.91,485.86,192,478.14Z"/><path class="cls-9" d="M558.71,550.2c3.72-2.21,6.88-11.51,11.73-7.46C576.24,548.91,552.69,564.78,558.71,550.2Z"/><path class="cls-7" d="M553.64,928.06c1.63-2.88,3.19-5.79,4.9-8.61C571.53,906.82,559.69,945.75,553.64,928.06Z"/><path class="cls-7" d="M566.63,936.06c2-2.53,2.7-9.58,6.86-8.25C584.14,932.63,563.25,952.91,566.63,936.06Z"/><path class="cls-7" d="M166.21,536.22c5,0,12.49-9,15.77-2.91C180.84,538.89,157.43,548.43,166.21,536.22Z"/><path class="cls-9" d="M416.77,829c-4.38,11-20.37,9.26-11.76-2.63C413.88,812.44,430,809.62,416.77,829Z"/><path class="cls-7" d="M520.63,795c-20.47,31.84-21.78-2.85-2.59-12.66,0,8.21-13.21,14.37-10.6,21.42C512.37,805,525.28,780.15,520.63,795Z"/><path class="cls-10" d="M395.81,773.05c4.68-11.58,23.14-10.08,17,2.69C407.47,785.88,391.35,786.6,395.81,773.05Z"/><path class="cls-7" d="M326.9,752.07c7.35-3.81,13-17.64,20.18-6.44,3.59,4.41-12.62,20.71-17.12,16.92C326.35,759.75,323.4,757.65,326.9,752.07Z"/><path class="cls-7" d="M446.74,861c-15.4,16.41-16.16-5.44-3.88-14.22C454.26,838.79,453.54,855.24,446.74,861Z"/><path class="cls-11" d="M312,694.15c5.39-3.72,12.6-15.46,18.46-6.73C335.42,695.65,311.52,710.05,312,694.15Z"/><path class="cls-11" d="M164.16,564.14c-6.13,2.06-15.86,13-19.94,3.58C141.82,559.26,175.88,548.64,164.16,564.14Z"/><path class="cls-11" d="M372,737.21c15.33-9.52,11.85,12.86.77,17.76C359.13,751.34,366.19,744.36,372,737.21Z"/><path class="cls-9" d="M385.86,643.1c-8.38,5.44-15.64,17.3-24.87,19.3-6.31-2.55-3.86-8.66,1.72-10.54-7.37,16.48,18.63-6.38,18.56-10.59-1.18-1.3-2.75,0-4,.85C361.29,654.11,384.86,625.21,385.86,643.1Z"/><path class="cls-9" d="M509.64,624.06c6.32-3.87,12.14-19.36,20.25-14.43C535.15,615.48,511.21,640.78,509.64,624.06Z"/><path class="cls-7" d="M198.12,604.13c-5.64,2.6-13.88,12.7-18.18,3.91C177,597.21,214.83,587.8,198.12,604.13Z"/><path class="cls-9" d="M576.56,563.91c-11.47,11.53-7.82-7.84,1.07-10.87C586.23,553.06,580,560.89,576.56,563.91Z"/><path class="cls-10" d="M380.94,758.18c4.91-12.13,23.87-9.39,16.07,2.32-3.61,3.3-10.31,14-14.78,7.16-1.45-2-6-4.21-1.39-7.59,3.21,9.23,9.86,5.26,13.83-1.38C395.75,743.15,381.71,765.49,380.94,758.18Z"/><path class="cls-7" d="M168.08,582c-30.3,11.38,3.17-25.59,10.57-9.38C178.4,577.33,170.5,578.12,168.08,582Z"/><path class="cls-9" d="M370.76,565.07c-6.95,10.79-44.21,28.23-21.94,6.86-8.58,16.42,7,1,13.79-3.91,3.93-3.23,3.77-4-.84-6C364.31,556.57,369.88,560.45,370.76,565.07Z"/><path class="cls-21" d="M578.79,656.11c-3.9,3.22-15.92,26.52-17.27,17.64C565.71,669,572.26,651.39,578.79,656.11Z"/><path class="cls-9" d="M488.76,484.21c4.56-2,10-11.85,15-7.4C505.56,481.18,489.93,493.75,488.76,484.21Z"/><path class="cls-7" d="M301.9,677.05c4.74-10,23.42-5,13.13,4.43C310.32,689.89,292.27,689.2,301.9,677.05Z"/><path class="cls-13" d="M468.81,844.15c3.51-2.75,6-12.51,11.45-8.85C494.22,842.59,464.73,866.32,468.81,844.15Z"/><path class="cls-7" d="M289,662.1c5.2-8.94,22.4-4,12.41,5.09C295.09,677.93,277.14,672.58,289,662.1Z"/><path class="cls-11" d="M551.57,545c-12.93,3.75,5.22-21.25,9.33-11.64C562.07,538.1,554.73,542,551.57,545Z"/><path class="cls-7" d="M358.9,721.11c4.67-4.14,6.6.68,9.14,2.95,4.84,5.37-5.77,9.67-8.21,14C344,743.24,350.46,727,358.9,721.11Z"/><path class="cls-7" d="M544.68,914.08c2.16-2.32,3.29-9.49,7.5-7.19C559.21,912.66,539.61,931.06,544.68,914.08Z"/><path class="cls-22" d="M517.64,694.07c5.27-4.09,19.1-27.89,20.91-21.41C531.21,676.89,525.34,699,517.64,694.07Z"/><path class="cls-7" d="M578.61,947.05c2-2.37,2.28-9.16,6.16-8.15C594.69,943.25,575.12,963.36,578.61,947.05Z"/><path class="cls-12" d="M404.84,481.06c3.75,2.09.19,3.12-.82,3.85C374.77,508.67,379.35,489.71,404.84,481.06Z"/><path class="cls-7" d="M302.89,718.06c-19.76,14.43-17.8-5.81-2.5-13.59C311.24,700.62,310.69,714,302.89,718.06Z"/><path class="cls-7" d="M493.67,958.16c-12.28-4.69-.51-14.25,3.08-21.07C510.59,938.94,501.47,954.77,493.67,958.16Z"/><path class="cls-23" d="M675.36,902c2-5,12.19-35.33,12.29-22C683.78,884.83,681,905.75,675.36,902Z"/><path class="cls-9" d="M500.49,494c4.1-1.91,9.11-10.88,13.6-6.46C516.25,491.92,497.67,505.4,500.49,494Z"/><path class="cls-7" d="M478.58,474.06c4.62-2,10-11.33,15-7.58C495,470.38,479.66,483.42,478.58,474.06Z"/><path class="cls-7" d="M454.89,831.21c3.92-8.34,16.05-15,15.17-1.14C467.19,838.82,451.86,845.68,454.89,831.21Z"/><path class="cls-18" d="M110.28,495.22c-5.63,1.51-13.57,10.72-18.7,6.82C91.76,498.45,112.11,487.08,110.28,495.22Z"/><path class="cls-10" d="M636.58,617.16c10.86-8,1.52,17.13-5,11.51C628.57,623.9,636.13,621.57,636.58,617.16Z"/><path class="cls-7" d="M509.57,506.06c4.43-2.35,9.24-12.26,14.46-8.81C525.6,501.08,511,514.1,509.57,506.06Z"/><path class="cls-15" d="M610.42,1029.05c7.43-21.61,14.71-25.52,4-1C613.73,1029.72,612.65,1032.27,610.42,1029.05Z"/><path class="cls-7" d="M620.43,614.07c3.22-2.4,5.32-9.72,9.57-8.75C635.78,608.91,620.26,625.42,620.43,614.07Z"/><path class="cls-11" d="M194.09,556.12c10.14-8.35,15.59,6.22,3,8,6.47-10.08.52-7.2-6.49-2.54-1.9,1.11-.5,3.31,1.43,2.83,9.56-3.92.46,7.17-4.72,2.31C181,562.19,190.84,558.76,194.09,556.12Z"/><path class="cls-15" d="M119.25,504.19c-19.26,8.48-23.25,6.09-3.06-4.06C118.41,500.58,120.32,501.26,119.25,504.19Z"/><path class="cls-7" d="M129.1,494.07c4.05-1,10.13-7.81,13.62-3.56C144,495.74,123.54,502.7,129.1,494.07Z"/><path class="cls-12" d="M121.13,485.06c2.66-2.3,20-11.21,14.33-3.05C132.16,483.1,119.74,493.31,121.13,485.06Z"/><path class="cls-10" d="M376.9,616.18c13.71-12.87,18-13.6,4.62,1.24,3.58,2.37,7.32-4.32,10.55-5.74C403.87,604.18,379.18,633.22,376.9,616.18Z"/><path class="cls-7" d="M644.57,631.18c8.89-12.83,7.14,2.36,1,8C638.66,640.46,643.79,634.16,644.57,631.18Z"/><path class="cls-7" d="M589.64,959.08c.21-4.42,9.06-13.92,7.21-4.44C596,959.15,590,969.31,589.64,959.08Z"/><path class="cls-13" d="M543.71,526.19c14.3-10.78,2.44,5.45-3.93,9C534.4,533.06,544.07,529.76,543.71,526.19Z"/><path class="cls-16" d="M616.53,983.05c1.94-2.62,2-9.73,5.88-9.24C626.73,976.81,616.41,993.9,616.53,983.05Z"/><path class="cls-3" d="M339,623.3c3.1-6.53,11.5-8.49,13.86-15.15C358.59,613.07,342.75,619.64,339,623.3Z"/><path class="cls-7" d="M517.5,781.9c8.44-15.22,16,4.49,5,8.07C522.63,782.44,530.62,778.34,517.5,781.9Z"/><path class="cls-1" d="M645.64,307.11c-76.52,31.79-155,80.52-230.87,103.39,22.61-21.88,63.45-34.5,93-51.83C540.58,351,624.5,279.4,645.64,307.11Z"/><path class="cls-1" d="M636.73,298.13C623.9,300,280.65,473.34,395.16,408.43c54.54-32.57,116.34-57.69,173.37-89.66,18.11-10.52,41-16.38,56-30.65C627.47,285.87,633.64,295.59,636.73,298.13Z"/><path class="cls-1" d="M395.87,391.07c-46.52-31.69,29.18-34.42,52.58-50,55.42-14.3,116-58.76,167.1-62.87-50.69,31.44-110.4,48.18-165.21,72-10.75,8.49-49,9.71-44,24.78C419.36,384.83,404.83,387.64,395.87,391.07Z"/><path class="cls-1" d="M625.36,287.13c-21.2,10.81-273.59,144-203.95,96.94,25.46-27.62,73.92-35.82,107-57.12C558.69,318.93,599.13,271.2,625.36,287.13Z"/><path class="cls-3" d="M424.72,378.05c6.67,15.75-53.71,23-16.55,7,3.94-1.35,3.85-2.72,1-5.09-33-21,183.17-76.75,206.4-101.76C603.07,310.48,388.3,358.78,424.72,378.05Z"/><path class="cls-1" d="M768.45,429.1,763.32,435C753.76,438.21,767.62,420.38,768.45,429.1Z"/><path class="cls-3" d="M262.72,497.66c-4.53-2.37-11.54-10.34-3.1-12.28,21.77-5.32,51.42-39,70.75-26.3C311.17,473.25,285.07,485.81,262.72,497.66Z"/><path class="cls-3" d="M341.5,454.8c-3.77-2.11-9.91-8.31-2.45-9.34,21.08-6.52,49.29-36.53,68.86-27.6C389.62,431.9,362.57,441.77,341.5,454.8Z"/><path class="cls-3" d="M275.1,510c-18.8-5.56,56.94-42.9,64-42.29C332.22,485.4,292.73,495.38,275.1,510Z"/><path class="cls-3" d="M360.52,491.44c-6.63,4.92-77.95,58.24-64.94,34.68C316.33,517.64,340.77,488.53,360.52,491.44Z"/><path class="cls-1" d="M262,553.12c9-6.71,3.78-8.9-3.16-2.54-8.29,8.4-33-17.47-18-22.77,3.14-3.31,9.56-3.51,3.9,1.28-1.54,1.92-6.05,3-4.53,6.14,10.23,4.19,24.05-15.89,34.11-12.12,7.68,10.67-33.64,19.07-20,25.41C281.2,528.76,301,532.74,262,553.12Z"/><path class="cls-3" d="M292.91,510c17.31-8.34,39.49-30.5,57.15-30.06C349.87,490.72,250.68,539,292.91,510Z"/><path class="cls-3" d="M329.92,521.11c8.13-12.31,14.07,4.6,22.63-3,4.33-3.79,30.29-20.75,21-7.13-7.71,6.38-81,55.25-58.25,32.07C322.78,536.88,340.14,532.6,329.92,521.11Z"/><path class="cls-3" d="M416.35,427.57c-7.28,4.27-77,50.79-65.92,31.31C371.19,451.67,396.9,422.9,416.35,427.57Z"/><path class="cls-1" d="M349.86,419c-2,6.75-44.4,16.49-19.81,21.12,4.87,1.26,38.92-24.05,31.78-10.39C356.4,433,301.2,465.85,313,448.52c6.53-3.37,2.51-11.2,7-16.29C328.4,426.49,339.79,419.75,349.86,419Z"/><path class="cls-3" d="M361.88,475.66c-17.94-2.14,57.76-41.79,62.16-40.8C410.21,451.61,380.79,461.28,361.88,475.66Z"/><path class="cls-3" d="M433.28,444.45C413.73,456,387.89,480.9,368,483.6,381.71,470.55,414.6,447.38,433.28,444.45Z"/><path class="cls-3" d="M391.88,402.13c-10.1,3.21-20.81,13.33-30.28,13.72,2.61-4.63-.26-.88-3.44-2.84C349.87,404.52,390.14,386.88,391.88,402.13Z"/><path class="cls-1" d="M292.91,510c-29.27,12.81,6.66,18-11.9,24.23-5.12,5.91-.89-7.58-8.83-1.93-13.4,8.47-8.35.48,1.44-4.2,2.65-12.4-10.35,2.45-15.68,2,.82-6.16,16.55-6.34,6.05-12.68-.5-1.13,0-1.79,1-2.24,3.13-3.74,6.47-4.67,11.46-2.91C280.7,512.33,289,501.59,292.91,510Z"/><path class="cls-3" d="M415.78,474.14C399.34,470.7,440.7,440,443.71,456,434.76,462.38,425.58,470.05,415.78,474.14Z"/><path class="cls-3" d="M345,521.18c-16.41-6.86,12.41-16.34,18-22.53C384.52,498,353.09,518.75,345,521.18Z"/><path class="cls-3" d="M280.05,451.15C261.94,442.73,307,422.2,310,438,300.18,442.86,290.41,447.66,280.05,451.15Z"/><path class="cls-3" d="M349.86,419c-10.46.64-31.14,22.56-34.89,6.26C325.06,421.92,343.61,404.18,349.86,419Z"/><path class="cls-3" d="M329.92,521.11c13,9-16.26,22.72-23.15,24.2C295.35,535.36,324.19,528.37,329.92,521.11Z"/><path class="cls-3" d="M272.05,442.17c-15.36-10.31,17.26-17.15,24.86-19.9C311.18,433.55,280.29,438.8,272.05,442.17Z"/><path class="cls-3" d="M404.84,481.06c-6.47,3.11-31.67,24.85-26.67,7.48C386.07,485.83,402.61,465.82,404.84,481.06Z"/><path class="cls-3" d="M288,458.15c-22.62-5.12,35.93-28.68,24.49-12.32Z"/><path class="cls-7" d="M278.05,550c-3.7,2.2-20.51,16.2-14.52,5.18C272.54,547.42,301.53,532.77,278.05,550Z"/><path class="cls-1" d="M272.05,442.17c11.1-4.88,24.57-9.92,33.22-16.29C306,432.67,276.34,445.61,272.05,442.17Z"/><path class="cls-15" d="M415.78,474.14c8.86-5.33,19.46-16.88,28.93-17.07C436.49,461.53,423.38,477.54,415.78,474.14Z"/><path class="cls-15" d="M345,521.18c8.67-5.93,16.94-13.69,26.86-17.19C367.64,511.05,352.26,522.7,345,521.18Z"/><path class="cls-1" d="M296.91,422.27c-6.37,1.48-34.78,19-29.72,10C272.83,431.92,306.57,411.33,296.91,422.27Z"/><path class="cls-1" d="M271.91,474.16c-10.15-1,5.85-10.14,10.29-9C290.28,467.5,275.8,474.93,271.91,474.16Z"/><path class="cls-22" d="M310,439.13c-8.73,3.34-22.31,15.33-29.91,12C288.82,447.07,302,437.76,310,439.13Z"/><path class="cls-1" d="M174.39,520.83c4.62-4,10.62-11.57,15.45-5.82C189.15,521.28,180.81,521.08,174.39,520.83Z"/><path class="cls-1" d="M302,504.12c-2.69,1.92-8.23,5.37-9.71.49C292.41,497.64,307.79,494.32,302,504.12Z"/><path class="cls-9" d="M423.84,410.18c2.84-1.78,16.51-7.38,9.78.17C427.87,414.49,410.86,420.62,423.84,410.18Z"/><path class="cls-15" d="M428.77,423.16c4.9-1.37,11.2-8.64,15.62-6.5C444.68,419.86,427.2,430.75,428.77,423.16Z"/><path class="cls-23" d="M436.78,432.17c4.79-1.55,10.79-9,15.29-6.94C451.47,428,436.47,438.86,436.78,432.17Z"/><path class="cls-1" d="M343.06,412.13c-8.8,5.57-18.59,9-28.09,13.08C321.41,418.76,333.66,415.07,343.06,412.13Z"/><path class="cls-1" d="M295.8,463.13c-6.22.4-2.47-6.21,1.7-5.79C302.88,457,299.92,463.7,295.8,463.13Z"/><path class="cls-1" d="M261.33,502.1c3-1,7,5.42,3,5.11C261.62,506.78,255.48,502.1,261.33,502.1Z"/><path class="cls-1" d="M447.79,442.11c-1.21,1.67.75,5.43-3.55,4.55C438.94,445.29,447.71,438.32,447.79,442.11Z"/><path class="cls-1" d="M418.8,414.14a2,2,0,0,0,2,2.1C421.09,423.25,411.34,414.92,418.8,414.14Z"/><path class="cls-1" d="M265,515.13c-.77,2.59-3.41,5.53-6,3,2.15-1.92,5.71-3.44,2-7C263.66,511.14,264,513.44,265,515.13Z"/><path class="cls-1" d="M668.75,497.6c16.53-31.9,41.19-77.56,67.63-97.06C737.69,423.5,685.31,475.8,668.75,497.6Z"/><path class="cls-6" d="M630.48,530c31.52-37.82-16.37,51.55-23.84,30.11C611.29,549.2,624,540.83,630.48,530Z"/><path class="cls-1" d="M551.57,545c2.69-4.36,14.85-10.41,5.11-13.91C568,529,558.13,543.93,551.57,545Z"/><path class="cls-1" d="M556.61,531.14c-2.67,3.28-5.34,6.57-9.05,8.77C549.7,536.08,552.43,532.86,556.61,531.14Z"/><path class="cls-1" d="M577.62,553c-2,2.66-4.06,5.31-7.06,7C572.07,556.82,574,554.05,577.62,553Z"/><path class="cls-13" d="M612.49,551c-.53,3-1.53,5.58-5.11,6C608.29,554.29,610.35,552.6,612.49,551Z"/><path class="cls-13" d="M576.56,563.91c.76-2.75,3-4.24,5.06-5.81C581,561,578.93,562.57,576.56,563.91Z"/><path class="cls-24" d="M318.37,843.18c-9.64-1.13-17.11-6-6.13-13,5.87-3.84,11.92-19.24,19.53-14.05C346.17,824.89,324.71,836.54,318.37,843.18Z"/><path class="cls-4" d="M361.2,831.9c-8.77-4.5-11.26-11-3-17.4C372.66,799.92,376.51,824.8,361.2,831.9Z"/><path class="cls-6" d="M324.72,770.08c-1.54,8-15.52,19.69-20.29,7.64C305.9,769.39,319.7,757.16,324.72,770.08Z"/><path class="cls-6" d="M388.5,832c-2.51,11.68-21.89,19.89-17.93,3.1C376.16,828.19,383,820.28,388.5,832Z"/><path class="cls-7" d="M401.87,844.25c-2.23,4.91-7.81,16-13.73,13.74C378.08,852.77,397.77,831,401.87,844.25Z"/><path class="cls-9" d="M283.13,800.41c-1.86-6.21,9.78-19.46,15.88-16.9C318,789.13,276.68,828.13,283.13,800.41Z"/><path class="cls-10" d="M365.18,858.1c-7.88-1-15.78-4.38-6-11C364.19,841.2,375.94,858.2,365.18,858.1Z"/><path class="cls-7" d="M342.47,851.36c-24.1.49-4.31-21.74,5.36-20.27C359.6,837,350.36,847.45,342.47,851.36Z"/><path class="cls-7" d="M357,801.7c-3.84,17.51-27.79,15.69-18.77.63C344.16,793.65,352,790.29,357,801.7Z"/><path class="cls-10" d="M340.91,785.61c-1.47,17.28-32.35,16.14-16.73-.46C329.13,777.2,337.32,776.39,340.91,785.61Z"/><path class="cls-23" d="M296.6,769.76c-12.49-6.19-1.76-13.22,4.94-18.92,4.11-3.67,5.23,1.21,7.43,2.72C313.62,758.66,300.53,766.78,296.6,769.76Z"/><path class="cls-17" d="M284.83,769.7c8.12,2.07,3.62,14.32-1.81,10.74C283.82,777.49,281.15,770.1,284.83,769.7Z"/><path class="cls-1" d="M339.83,769.05c.05,6.28,6.88,12.35,11.95,7.9C348.33,786.11,335.33,773.05,339.83,769.05Z"/><path class="cls-6" d="M446.37,958.09c-17.67,1.28,2.29-22.06,8.18-23.4C466.87,939.78,453.66,954.71,446.37,958.09Z"/><path class="cls-10" d="M480.07,945.09c-11.54-3.21-3-13.78,1.56-19.4C496.37,919.12,488.94,942.43,480.07,945.09Z"/><path class="cls-6" d="M447.8,888.73c-1.57,5.14-6.66,17.13-13.05,14.5C423,897.39,443.37,874.13,447.8,888.73Z"/><path class="cls-10" d="M425.17,953.42c-20.9,3.05,10-34.69,15.21-33C454.27,926.65,433.34,950,425.17,953.42Z"/><path class="cls-7" d="M408,927.89c1.16-8.11,8.85-13,12.78-19.82,3.16-5.38,13.4,2.52,9.78,7.32C423.33,923.67,409.44,953.79,408,927.89Z"/><path class="cls-7" d="M467.38,962.91c-12.66.3-4.83-11.86.66-15.42C476.81,949.5,476,961.78,467.38,962.91Z"/><path class="cls-9" d="M404.84,898c-1.44-12.06,15.84-3.39,10.62,3.66C408.85,912.8,404.77,909.91,404.84,898Z"/><path class="cls-7" d="M456.22,896c13.18,3.43,1.67,22.74-6.38,22.1C438.09,912.6,449.72,900.77,456.22,896Z"/><path class="cls-9" d="M466.54,932.07c-11.94-3.83-4.1-14.34,1.11-20.44C482.85,906.09,474.52,927.64,466.54,932.07Z"/><path class="cls-1" d="M419.3,861.65c-3.1,5.08-6,13.4-11.85,15C406.94,871.1,414.68,865,419.3,861.65Z"/><path class="cls-25" d="M485.35,967.11c-4.48.93-8.25-6.33-2.36-6.65C485.91,961.05,491.61,967.65,485.35,967.11Z"/><path class="cls-6" d="M179.28,699c-1.2-9.4,21.42-23.84,25.67-10.61C202,694,176.87,717.28,179.28,699Z"/><path class="cls-6" d="M271.62,717.43c-4.21,6.74-19.09,16.28-20.62,2.64C255.69,713,268.4,703.54,271.62,717.43Z"/><path class="cls-11" d="M195.7,724.06c-27.14-4.73,5.61-18.59,14.74-26.66,4.62-3.29,13.47,7.35,7.86,10.05C210.72,712.8,204,719.94,195.7,724.06Z"/><path class="cls-7" d="M178.11,674.55c-2.92-12.37,12.16-8.18,12.32-.09C187.4,680.82,175.85,685.91,178.11,674.55Z"/><path class="cls-7" d="M220.06,732.4c-2.8-2-15.77-2.85-11.24-7.43,7.82-5.24,18.59-21,25.81-7.31C237.37,723.38,224.69,730,220.06,732.4Z"/><path class="cls-7" d="M235.08,679.35c16.43,4-2.21,23.74-10.61,17.6C213.72,689.35,228.66,683,235.08,679.35Z"/><path class="cls-7" d="M213.72,684.24c-13.89-6.13-4.84-13.52,4.27-18.45C235.53,663.93,225.12,681,213.72,684.24Z"/><path class="cls-7" d="M257.79,702.36c-4.48,3.49-11.62,14.58-17.52,10.27-2.7-3.4-8.19-7.15-2.59-10.57C244.23,695.46,254,690.13,257.79,702.36Z"/><path class="cls-7" d="M199,669c-15.79-5.78.2-21.58,10-17.81C221,659,205.91,664.59,199,669Z"/><path class="cls-12" d="M286.76,730.87c-5.11,6.32-15,18.07-20.79,6.57C264.58,729,282.49,717.23,286.76,730.87Z"/><path class="cls-16" d="M244.07,740c-20.93-1.09-4.08-21.6,5-8.24C253.28,735.35,249.19,740.07,244.07,740Z"/><path class="cls-7" d="M401.66,723.22c-3.14,7.22-13.47,16.52-18.06,5C385.73,719,397.44,711.51,401.66,723.22Z"/><path class="cls-11" d="M416,693.18c6.91,2.57-11.59,11.26-7.57,16.11,6,3.14,37.08-31.54,11.39-18.24,3.45-9,18.56-8.5,13,2.05-8.37,4.84-17.59,27.7-27.56,18.86C398,705.14,412.73,698.87,416,693.18Z"/><path class="cls-11" d="M443.81,708.11c-3.93,5.71-14.74,24.85-22.42,19.37-2.41-3-6.55-5.06-1.84-9.6,8.45-5,15.06-23.29,25.12-19.6,4.87,5.21,5.12,5.17-.86,9.83-.38-3,1.74-10.9-4.43-6.38C414.37,726.55,417.51,733,443.81,708.11Z"/><path class="cls-10" d="M457.53,776.1c-1.57,4.32-5.38,7.48-7.95,11.25C432.88,797.23,452.5,761.68,457.53,776.1Z"/><path class="cls-7" d="M408.85,687.11c-6.49,5.39-12.05,18.89-20,8,.89-9.23,39.15-39.2,27.49-15-4.22,6.75-12.26,8.18-3.89.26,12.73-17.19-22.35,9.72-18.51,15.17C400,698.34,402.63,684.66,408.85,687.11Z"/><path class="cls-7" d="M424.35,744.05c7.49,3.67,10.69,9.92,3.15,15.52C414.72,775.52,408.47,746.9,424.35,744.05Z"/><path class="cls-7" d="M416.69,736.87c-1.85,7.72-14.26,18.71-18.41,6.28C398.8,734.58,412,724.32,416.69,736.87Z"/><path class="cls-12" d="M439.62,759.06c13.87,2.73,1.43,20.22-6,19.1C422.66,773,433.32,763.29,439.62,759.06Z"/><path class="cls-15" d="M362,706.88c-11-5.16-2.14-11.33,3.89-16.07C380.21,688.88,369.34,703.81,362,706.88Z"/><path class="cls-7" d="M387.59,708.79c-2.57,6.13-14.66,16.8-18,5.86C369.15,705.48,383.53,697.45,387.59,708.79Z"/><path class="cls-1" d="M472.57,735c-.37,3.57-16,28.15-22.89,19.15C460.91,754.18,463.08,737.9,472.57,735Z"/><path class="cls-6" d="M125.87,626.89c-25.54-.57,5.77-22.74,11.67-9.56C138.06,622.12,129.15,625,125.87,626.89Z"/><path class="cls-6" d="M182.26,624.23c13.52,3.15-11.24,21-14.74,12.73C164.62,630.74,178.09,627.17,182.26,624.23Z"/><path class="cls-10" d="M127.93,562.31c-1.83,6.86-30.17,15-18.44,2.75C114.65,563.52,125.12,553.94,127.93,562.31Z"/><path class="cls-7" d="M125.78,604.24c-5.08,7.08-32.8,20.86-32.81,7C102.77,608.27,118.8,589.61,125.78,604.24Z"/><path class="cls-4" d="M168.18,622.19c-4.16,5.64-17.54,4-10.85-3.76C164.5,609.32,183.22,612,168.18,622.19Z"/><path class="cls-10" d="M163.84,602.8c-4.18,5.42-19,16.84-22.55,5.81C140.62,602.54,162,591.26,163.84,602.8Z"/><path class="cls-13" d="M133.27,580.22c-4.22,4.17-13.28,9.36-16.23,1.59-1.22-7.25,22.29-18.32,22.54-5.66-.72,2.39-3.62,3.6-6.33,4.07.36-3.36,3.09-8.85-3.52-5.5C113.84,583.11,122.63,581.69,133.27,580.22Z"/><path class="cls-7" d="M151.19,588.89c-1.38,8.14-27.27,16.22-21.27,2.7C135.92,588.42,147.51,578.13,151.19,588.89Z"/><path class="cls-9" d="M92.06,590.79c29-17.89,23,7.38-.88,11.52-.36-4.84,27.26-14.35,11.4-14C100,589.12,92.33,596.13,92.06,590.79Z"/><path class="cls-12" d="M168.18,622.19c11.72-10-1.53-11.68-8.85-4.15-7.39,3.68.54,9.53,5.82,6.09-4.55,4.43-6.25,4.61-9.21,1.25C144.72,610.55,195.18,607.42,168.18,622.19Z"/><path class="cls-9" d="M146.11,635.18c-2.22-.94-8.13-1.23-8.46-4.48C140.65,619.49,159.5,634.11,146.11,635.18Z"/><path class="cls-7" d="M89.22,575.12c3.09-2.45,6.22-4.56,9.88-.92C103.13,581.7,83.38,587.05,89.22,575.12Z"/><path class="cls-23" d="M92.06,590.79c.28,4.68-9.76,8.23-.92,11.28C83.74,615.72,79.83,592,92.06,590.79Z"/><path class="cls-1" d="M89.22,575.12c-3,10.57,11,6.19,9.88-.92C107.11,581,80.51,589.59,89.22,575.12Z"/><path class="cls-25" d="M590.59,350.07c-5.89-4.88,13.2-8.44,19-11.93C605.06,342.94,596.87,346.6,590.59,350.07Z"/><path class="cls-1" d="M447.79,442.11c-1.8-3.22,8.69-6.33,11.4-9.29C456.51,437.38,452.05,439.62,447.79,442.11Z"/><path class="cls-1" d="M434.66,406.25c-3.65.36-6.19,3.62-9.92,3.77C426.72,408.2,433.79,403.16,434.66,406.25Z"/><path class="cls-7" d="M530.73,1025.1c-2.71,11-14.39,23.29-10.26,3.34C524.3,1011.93,543.66,999.38,530.73,1025.1Z"/><path class="cls-7" d="M525.61,964c-3,3.75-5,17.33-11.2,15.3C506.59,975.33,522.46,949.68,525.61,964Z"/><path class="cls-4" d="M545.66,982c7.82,3.06-.59,19.52-6,20.76C532.21,1000.52,541.6,983.46,545.66,982Z"/><path class="cls-4" d="M561.69,999c-3.05,3.13-4.42,16.58-10.69,14.59C543.74,1009.5,559.23,982.94,561.69,999Z"/><path class="cls-10" d="M538.2,1038.17c-7.56.44,2.63-17,6.28-17.91C554.13,1022.82,544.34,1037.69,538.2,1038.17Z"/><path class="cls-5" d="M564.39,1025c-8.5-3.3,1.78-14.16,3.64-19.55C579,1001.12,568.65,1022.38,564.39,1025Z"/><path class="cls-13" d="M533.06,970.06c10.12,3.09,1,13.16-1.39,18.89C519,999.73,525.44,972.85,533.06,970.06Z"/><path class="cls-13" d="M513.43,1007.89c.55-3.71,2.09-12.76,7.06-11.11C531.59,1000.61,513.1,1028.58,513.43,1007.89Z"/><path class="cls-26" d="M530.73,1025.1c1.42-4.77,9-19.07-2.22-13.17C536.62,1000,538.94,1020.75,530.73,1025.1Z"/><path class="cls-1" d="M538.7,957.09c-1.11,8,5.71,6.57,8,1C548,968.12,532.35,966,538.7,957.09Z"/><path class="cls-1" d="M542.68,950.07c.27,3.24-2.41,4.8-4,7C538.36,953.79,541.08,952.25,542.68,950.07Z"/><path class="cls-3" d="M628.52,825c-5.68,5.61-6.89,21.22-14,22.17-13-13.3,23-52.45,27.9-71.26,22-12.19-12.59,40.1-13.92,49.12Z"/><path class="cls-3" d="M656,766.44c-12.34-8.81,8.14-26,10.21-37.4,6.75-10.08,10.59-28.59,19.63-34C689.94,715.4,663.69,745.19,656,766.44Z"/><path class="cls-1" d="M695.49,723.09c9.58-9.35.59,12.11-3.42,16C690,732.47,697.16,728.77,695.49,723.09Z"/><path class="cls-1" d="M591.6,856.05a6,6,0,0,1,2-4C604.6,847.1,594.2,869,591.6,856.05Z"/><path class="cls-1" d="M628.51,825.05c5.94-6.45,7.48,4.14,2.27,5.51C627.32,830.46,629.05,826.9,628.51,825.05Z"/><path class="cls-1" d="M684.39,684.28c-1.36,4.1-6.85-1.95-6.7-4.65C679.18,675.49,684.12,682,684.39,684.28Z"/><path class="cls-3" d="M201.08,535.07c3.4-4.27,25.48-11.39,17.88-1.55C213.89,536,204.13,544,201.08,535.07Z"/><path class="cls-7" d="M238.12,578c-14.68-3.82,11.57-17.68,10.09-6.68A28.55,28.55,0,0,1,238.12,578Z"/><path class="cls-7" d="M248.88,589.1c-14.93-4.64,18.74-18.44,9.37-5.9C255.17,585.38,252.32,588,248.88,589.1Z"/><path class="cls-7" d="M229.69,556.11c16,2.16-7.27,17.65-7.47,4.92C223.5,557.83,226.92,557.17,229.69,556.11Z"/><path class="cls-15" d="M221,549.94a5.37,5.37,0,0,1-10.49-.81C211.07,543.48,218.63,547.38,221,549.94Z"/><path class="cls-1" d="M259,518.14c8.77-.14-11.4,12-14.9,10.14C248,523.48,254,521.43,259,518.14Z"/><path class="cls-19" d="M201.08,535.07c6.29,1.75,6.58,10-.06,4.51C199.83,538.09,197.22,536.52,201.08,535.07Z"/><path class="cls-9" d="M538.49,855.59c-2.55,6.67-13.09,22.64-15,7.92C526.69,858,533.76,843.26,538.49,855.59Z"/><path class="cls-7" d="M487.72,806c-3.5,3.92-6.65,15.39-13,12.6-5.19-3.77-5.56-5.53-2.05-9.82C477,802.57,484.06,794.31,487.72,806Z"/><path class="cls-11" d="M503,845.78c-10.13-4-2.09-13.31,2.21-18.59C519.17,820.92,510.58,842.68,503,845.78Z"/><path class="cls-13" d="M520.4,837.48c11.41,3.54,1.19,13.61-2.45,19.5C504.19,860.86,513.38,841,520.4,837.48Z"/><path class="cls-15" d="M494.78,812.16c11.69,2.38.34,21.33-6.21,20C478,827.28,489,816.45,494.78,812.16Z"/><path class="cls-13" d="M473.76,795.09c-3.55,2.84-6.17,12.44-11.36,10.51C459,802,475.85,783.94,473.76,795.09Z"/><path class="cls-1" d="M530.59,899c2-4.87,6.35-10.92-1.89-11.9C534.48,881.14,538.2,896.48,530.59,899Z"/><path class="cls-1" d="M540.63,880c-1.2,4.69-6.92-1-6-3.9C537.8,871.45,537.74,878.52,540.63,880Z"/><path class="cls-1" d="M473.76,795.09c-.25-7.18-3.31-1.13-5.1-1.09C468.91,788.22,478,790.05,473.76,795.09Z"/><path class="cls-3" d="M288.92,606.13c26.68,23,2.28-.75-7.74,19.92-4.37-8.32-28.51-19.35-11.21-27.51,6.76-8.48,20.68,1.32,15.87,5.23-3.68-4.66-7.1-2.42-10.57.24-7.69,2.2-7.52,12.78,1.62,9.68C280.87,611.13,284.11,607.37,288.92,606.13Z"/><path class="cls-7" d="M281.18,626.05c.76-7.59,14.13-16.22,20-8C296.47,623.88,287.33,634.24,281.18,626.05Z"/><path class="cls-6" d="M312.72,631.49c-3.25,9.9-27.06,15.14-15.3,1.67C302.86,629.43,308.43,622.63,312.72,631.49Z"/><path class="cls-9" d="M326.78,645.17c-4.84,4.8-13.52,17.27-19.3,7.9-2.79-2.53-1.07-4.42,1-6.09C314.72,641.84,322.35,633.37,326.78,645.17Z"/><path class="cls-11" d="M345.94,665.43c17.18,3.33-8.09,27-13.08,13.08C333.6,673,341.46,668.61,345.94,665.43Z"/><path class="cls-12" d="M326.38,671c-16.11-4,4.61-24.92,11.61-15.45C342.87,662.4,330.41,666.93,326.38,671Z"/><path class="cls-11" d="M288.92,606.13c-6.65,3.74-14.45,16.47-21.13,5.39C267.29,603.22,285.45,594.45,288.92,606.13Z"/><path class="cls-11" d="M415.8,654.09c-11.16-3.32,14.2-25.17,19.66-24.76C438.81,638.69,421,646.53,415.8,654.09Z"/><path class="cls-7" d="M473.82,707.16c-31,6.85,22.22-48.55,16-18.41C484.3,694.7,479.14,701,473.82,707.16Z"/><path class="cls-7" d="M456.71,668.08c-6,5-17.94,22.14-21,6C443.64,660.39,479,639.09,456.71,668.08Z"/><path class="cls-9" d="M468.83,683.16c-5.79,2.26-11.15,16.82-17.26,9.27-1.84-1.84-3.8-3.44-.77-6C459.08,668.49,493.42,654.58,468.83,683.16Z"/><path class="cls-13" d="M483.69,722.07c-15.64-1.85,8.59-23.53,3-12.83-1.59,1.7-8.44,10.19-2.29,7.73,8.39-9.93,24.48-26.85,3.23-12C515,673,498,712.1,483.69,722.07Z"/><path class="cls-7" d="M49.9,541.23c-14-.9,12.16-16.21,14.92-9.78C66,537.61,54.34,539.36,49.9,541.23Z"/><path class="cls-7" d="M85.26,540.12c-13.9-2,10.63-15,14.93-11.51C102,534.9,88.5,537.34,85.26,540.12Z"/><path class="cls-9" d="M109.66,541.52c-2,6.15-28.07,14.14-16.86,3.6C97.11,543.52,107.68,533.77,109.66,541.52Z"/><path class="cls-7" d="M75.15,529c-12-3.85,9.92-13.61,14.1-12.16C88.16,522.52,80.94,527.57,75.15,529Z"/><path class="cls-15" d="M80.37,506.24c10.42.65-12.94,12.45-15.6,10.46C66.4,510.9,76.63,509.87,80.37,506.24Z"/><path class="cls-1" d="M33.39,534.39c6.27-6.19,16.37-13.87,24.07-13.31C52.78,527.26,41.77,530,33.39,534.39Z"/><path class="cls-7" d="M67.57,549.12c-12.89,0,2.47-12.21,6.19-5.77C75.57,547.4,70,548,67.57,549.12Z"/><path class="cls-7" d="M574.26,892.13c7.88,3.12-1.17,11.89-2.65,16.92C561,916.2,568.9,894.15,574.26,892.13Z"/><path class="cls-7" d="M585.49,903c7.47,3.05-1.92,15.6-5.31,18.57C573.91,919.73,581.92,904,585.49,903Z"/><path class="cls-11" d="M599.38,917.32c-2.12,3.48-3.89,15.37-9.07,13.95C584.07,928.38,597.36,905.37,599.38,917.32Z"/><path class="cls-7" d="M609.52,927.5c-2.51,3.08-2.88,14.4-8.3,14.27C596.34,939.62,609.46,915.14,609.52,927.5Z"/><path class="cls-7" d="M566.61,886.05c-1.64,5.38-12,20.77-10.8,7C556.9,889.14,566.24,876,566.61,886.05Z"/><path class="cls-1" d="M560.7,885.12c-.46,4.61-9.77,12-1.14,13.82C551.22,902.69,555.19,886.9,560.7,885.12Z"/><path class="cls-1" d="M566.61,886.05c-1.22-5-3.66-2.35-5.91-.94C560.26,879.38,570.3,880.93,566.61,886.05Z"/><path class="cls-27" d="M770.35,554.08c-2.69-11.06,8.74-23.25,13-35C782.39,530.23,774.88,543,770.35,554.08Z"/><path class="cls-1" d="M739.33,581c-4.51-3.31,5.16-14.11,10.14-22C747.21,566.8,743.19,573.84,739.33,581Z"/><path class="cls-27" d="M761.25,577c2.4-7.88,4.93-15.71,9.1-22.89C768.18,562.06,765.89,570,761.25,577Z"/><path class="cls-25" d="M774.46,648.15a19.17,19.17,0,0,1,3.91-11A23.28,23.28,0,0,1,774.46,648.15Z"/><path class="cls-3" d="M182.31,488.12c5.17-2.26,5.49,2.92,7.78,5.08-5.6,4.87-5.78,2.76,1.14,2.92,13.33,3.37-14.88,19.15-17.65,11.36-1.55-2.7-5-4.14.25-7.11C176.37,494.86,166.26,490,182.31,488.12Z"/><path class="cls-3" d="M163.91,493.12c-15.29-4.86,2.1-14.57,10.23-16C188.34,482.43,171.63,491.74,163.91,493.12Z"/><path class="cls-7" d="M174.14,477.13c-4.13,4.28-26.7,13.33-15.57,2.16C163.14,478.53,172.06,469.58,174.14,477.13Z"/><path class="cls-12" d="M163.91,493.12c10.62-8.8,28.11-10.69,8.12.91C169.34,493.52,166,499.17,163.91,493.12Z"/><path class="cls-28" d="M191.23,496.12a17.26,17.26,0,0,1-10.51,2.31C184,495.58,190.22,490.28,191.23,496.12Z"/><path class="cls-1" d="M603.53,649c3.53-6,7.09-11.94,12-16.95C612.32,638.31,609.11,644.52,603.53,649Z"/><path class="cls-3" d="M589.37,1047.09c-11.5-2.39-1.62-14.65.14-21.22C601,1021.3,594.86,1042.59,589.37,1047.09Z"/><path class="cls-15" d="M589.37,1047.09c1.52-3.8,8.2-25.41,9.76-13.07C597.08,1037.24,593.47,1056.2,589.37,1047.09Z"/><path class="cls-15" d="M608.48,1042c-3.16,4-3.13,14.78-9,16.29C597.39,1055.64,607.53,1031.91,608.48,1042Z"/><path class="cls-29" d="M608.34,1066.6c.95-6.42,3-16.74,8.25-19.68C617.08,1053.25,612.6,1061.28,608.34,1066.6Z"/><path class="cls-30" d="M605.54,1078c-2.39,2.9-3.37,11.78-7.36,12.32C596.48,1087.42,603.83,1069,605.54,1078Z"/><path class="cls-31" d="M591.78,1073.81c1-1.67,1.38-7.52,4.44-5.89C597.31,1070.86,591.89,1081.29,591.78,1073.81Z"/><path class="cls-1" d="M313,414.15c3.92-3,8.45-4.52,13.2-5.51C322,411.06,317.71,413.37,313,414.15Z"/><path class="cls-1" d="M527.84,724.15c0-2.08-.78-3.3-3.07-3C527.48,716.26,531.05,722.59,527.84,724.15Z"/><path class="cls-13" d="M628,965.74c-6.22-2.66,2-12.92,3.72-17.38C638.74,946.43,628.87,962.1,628,965.74Z"/><path class="cls-19" d="M644.52,982c-4.08-3.41,3.43-12.55,4.76-17.27C655.52,961.14,647.21,979.9,644.52,982Z"/><path class="cls-1" d="M635.37,973.64c.56-5.62,3.15-13.87,7-16.79C643.29,961.81,638.84,969.26,635.37,973.64Z"/><path class="cls-6" d="M462.76,718.18c-7.8,5.62-17.4,29.31-27.37,21C427.91,735.32,459.61,699.35,462.76,718.18Z"/><path class="cls-4" d="M419.77,691c24.49-15,2.9,12.33-5.9,18.59C396.85,717.29,414.16,695,419.77,691Z"/><path class="cls-10" d="M391.65,603.88c9.32-14.06,22.69-2.15,6.21,5.23-1.22-3.42,5.15-4.73,3.53-7.71C398.11,598.73,395.1,607,391.65,603.88Z"/><path class="cls-1" d="M711.47,766.1c3-7.57,5.61-15.29,10-22.21C719.45,750.43,716.36,764.45,711.47,766.1Z"/><path class="cls-11" d="M540.63,880c-10.16,0,1.52-18.12,6.2-17.13C551,867.72,542,874.72,540.63,880Z"/><path class="cls-6" d="M361.77,562.05c17.34-2.94-14.09,22-18.13,19C343.71,573.12,355.61,567,361.77,562.05Z"/><path class="cls-3" d="M331,630.18c1.06-4.23,4.39-5.8,8.1-6.91C336.94,626.22,333.75,628,331,630.18Z"/><path class="cls-6" d="M392,604.31c22.11-13.9,3.9,9.52-6.35,13.91C371.05,623.22,388,607.7,392,604.31Z"/><path class="cls-6" d="M370.76,645c26.64-15.86,4.29,7.53-5.69,13.49C351.46,663.72,366.12,647.59,370.76,645Z"/><path class="cls-9" d="M369.78,645.94c-1.37,2.46-2.86,4.77-6.07,5C365.5,649,367.07,646.78,369.78,645.94Z"/><path class="cls-6" d="M551.64,746.49c-4,7.38-10.17,21.41-18.24,22.69C528.71,764.6,548,738,551.64,746.49Z"/><path class="cls-6" d="M299.76,596.05c-13-5.91,12.17-14.77,16.55-20.07C332.84,575,304.86,593.16,299.76,596.05Z"/><path class="cls-6" d="M370.19,606.82C363.51,600.59,383,592,387,586.72,400.21,588.26,375.08,604,370.19,606.82Z"/><path class="cls-6" d="M371.61,629.49c-5.41,7.23-13.89,11.48-19.88,18.19C334.77,650.52,368.73,617.8,371.61,629.49Z"/><path class="cls-6" d="M404.69,663.24c-7,5.88-15.74,21.59-25.06,19.85C378.7,678.77,403.41,652.42,404.69,663.24Z"/><path class="cls-24" d="M392.84,793.43c-2.82,5.73-13,20.29-18.24,9.83C374.12,796.63,388.69,780.94,392.84,793.43Z"/><path class="cls-6" d="M238,637.71c-1.89,5.21-14,16-18.59,10C215.15,642,236,626.82,238,637.71Z"/><path class="cls-6" d="M280.34,708.11c-14.78-1.9,6.86-21.4,11.83-14.4C296.34,699.17,284,704.89,280.34,708.11Z"/><path class="cls-4" d="M528.06,641.82c-9.59-2.85,8.34-21.78,13.53-18.64C543.18,629.48,532,636.62,528.06,641.82Z"/><path class="cls-6" d="M464.77,864.78c-1.07,4.51-5.44,7.86-8,11.68C440.42,886.64,460.56,846.77,464.77,864.78Z"/><path class="cls-6" d="M347.91,777c-12.61-5.24-.07-11.76,4.87-17.35C369.58,755.34,354.76,773.34,347.91,777Z"/><path class="cls-6" d="M517.81,782.18c18.39-12.33.41,16-5.71,20.86C495.59,812.2,514.74,787.58,517.81,782.18Z"/><path class="cls-6" d="M412.47,771.36c-1.57,4-10.22,17.22-14.36,8.34C393.52,772.42,408.16,760.85,412.47,771.36Z"/><path class="cls-32" d="M345.87,746.73c.11,9.65-23.68,22.4-16.62,6.47C334,749.48,340.81,737.55,345.87,746.73Z"/><path class="cls-6" d="M318.26,700c-9.86-2.2,4.63-17,9.32-12.67C332.22,692.28,321.79,697.68,318.26,700Z"/><path class="cls-6" d="M151,569.08c-14.08-.41,10.4-14.77,13.68-10.52C165,564.28,154.6,566.76,151,569.08Z"/><path class="cls-6" d="M381.75,742c-2,8.35-21.19,14.28-13.4,2.27C371.37,740.45,378.66,732,381.75,742Z"/><path class="cls-6" d="M529.35,613.7c-3.37,3.21-17.18,23.39-16.88,10.33C516.8,621.16,525.63,603.55,529.35,613.7Z"/><path class="cls-6" d="M201,598.49c.08,2.89-13.29,10.3-15.58,10.64C174.87,607.17,199,590.67,201,598.49Z"/><path class="cls-6" d="M380.85,760.07c4.78-1.78,8.39-12.77,13.73-6.86C402.62,760.67,380,776.12,380.85,760.07Z"/><path class="cls-6" d="M157.28,579.66c3.21-3.91,13.79-11.49,18.67-8.08C176.88,576.27,159.13,588,157.28,579.66Z"/><path class="cls-6" d="M315.8,677c-2.47,3.36-9.12,11.77-13.59,7.76C297,679.41,314.66,667.2,315.8,677Z"/><path class="cls-6" d="M481.64,842.8c-1.92,2.43-5.92,11.78-10.41,8.16C465.29,845.6,482.12,829.25,481.64,842.8Z"/><path class="cls-6" d="M302,662.83c-2.81,3.81-9.29,12.18-14.1,7.66C283.13,665.81,300.5,652.24,302,662.83Z"/><path class="cls-6" d="M361.67,722.07c12.15,1.49-2.57,20-8.52,14C347.51,730.72,357.86,724.74,361.67,722.07Z"/><path class="cls-6" d="M502.55,945.15c-1.77,2.49-5.33,13.09-9.74,9.52C485.37,949.57,501.85,931,502.55,945.15Z"/><path class="cls-6" d="M468.67,828.33c-.11,1.79-6.27,9.21-8,9.62C448.09,838.44,466.79,815.09,468.67,828.33Z"/><path class="cls-6" d="M197.14,564.17c-18.73,8.1-2.6-13.53,5.16-7.24C204.32,560.7,198.1,561.3,197.14,564.17Z"/><path class="cls-26" d="M528.67,328.11c3.55-7.91,12.48-9.85,25-13.93C545.9,319.9,537.42,324.23,528.67,328.11Z"/><path class="cls-26" d="M512.71,336.14c2.68-2.06,5.49-3.81,9-4A14.62,14.62,0,0,1,512.71,336.14Z"/><path class="cls-6" d="M244.13,528.28c5.63-3.13,33-19.26,21.88-3.58C260,531.22,224.19,547.18,244.13,528.28Z"/><path class="cls-5" d="M262.08,536.21c30.91-16.63,12.27,6.1-4.48,12.23C240.15,554,253.85,539,262.08,536.21Z"/><path class="cls-13" d="M310.14,545.11c5.53-4.18,21.79-20,25.11-14.92C328,535.66,319.06,545.1,310.14,545.11Z"/><path class="cls-24" d="M285.1,800.89c.23-5.87,10.16-22,16.3-12.77C307.16,793.29,281.48,817.4,285.1,800.89Z"/><path class="cls-6" d="M332.47,780.08c8.71,3.66,6.07,9.62-.11,14.1C318,803.89,321.86,783,332.47,780.08Z"/><path class="cls-6" d="M307.88,756.86c-2.95,3.79-10.41,15-15.11,7.33C292.1,757.85,307.16,746.06,307.88,756.86Z"/><path class="cls-6" d="M410,927.57c1.61-6.39,7.29-10.93,11-16.15C442.35,898.32,408.53,953.07,410,927.57Z"/><path class="cls-6" d="M465.51,929.43c-7.62-2.13-1.28-12.14,2.77-15.42C479.84,908.78,471.83,927.18,465.51,929.43Z"/><path class="cls-6" d="M219.53,730.05c-22.59-3.2,21.2-26.68,11-7.61C226.79,724.54,224,729.69,219.53,730.05Z"/><path class="cls-6" d="M239.93,686.59c-1.52,9-23.13,13.19-14.3,1.38C229.47,684.44,237.82,678.53,239.93,686.59Z"/><path class="cls-6" d="M211.06,658c-3.61,4.68-13.07,12.79-16.77,4.1C194.65,656.31,208.82,646.5,211.06,658Z"/><path class="cls-6" d="M243.59,738c-2.42-1.35-7.19-.45-7.78-4C237.25,722.54,256.81,736.06,243.59,738Z"/><path class="cls-4" d="M443.81,708.11c-8.08,3.49-13,21.2-22,17.41C414.3,718.22,454.29,684,443.81,708.11Z"/><path class="cls-6" d="M429.68,752c-1.78,7.52-10.84,14.35-14.46,4.2C417.2,750.23,425.87,742.22,429.68,752Z"/><path class="cls-6" d="M444.46,766c-.06,1.34-7.61,9.84-8.73,10C423,774.25,440.84,753.73,444.46,766Z"/><path class="cls-6" d="M362.51,704c-12.58-3,13.07-19.18,7.81-6.79C367.77,700.3,363.64,703.94,362.51,704Z"/><path class="cls-6" d="M384.83,709.33c-.15,2.16-7.18,9.1-8.88,8.5C363.44,714.86,383.23,696.66,384.83,709.33Z"/><path class="cls-6" d="M102.19,615.81c-16.27-2.11,15.71-20,20-13.24C122.46,609.14,107.57,612,102.19,615.81Z"/><path class="cls-6" d="M149,611.05c-19.75-2.3,21.26-20.63,9.51-5.54C155,607.65,151.74,610.19,149,611.05Z"/><path class="cls-6" d="M133.27,580.22c-4.78-.49-10.23,7.5-13.57,1.6C118.22,573.51,145.61,567.38,133.27,580.22Z"/><path class="cls-6" d="M148.86,589.1c-2,6.27-23.58,13.49-15.06,2.25C138.18,589.77,146.06,582.13,148.86,589.1Z"/><path class="cls-6" d="M91.14,602.07c-17.07,1.18,12.85-22.26,18.32-13.94C109.12,595.76,95.62,596.52,91.14,602.07Z"/><path class="cls-6" d="M536.19,976.59c-1.84,3.34-4.09,7.56-6.5,11.68C518.7,992.32,535.15,962,536.19,976.59Z"/><path class="cls-6" d="M515.75,1008.45c-2.14-6.16,6.48-13.65,6.77-4.74C521.9,1007.47,515.5,1017.4,515.75,1008.45Z"/><path class="cls-6" d="M481.8,802.27c6.8,2.93-.11,10.25-3.23,13.51C467.44,819.91,476.11,803.87,481.8,802.27Z"/><path class="cls-6" d="M503.34,843c-8.45-.92,1.86-17.12,6.65-14C513.66,832.77,505.87,839.81,503.34,843Z"/><path class="cls-6" d="M515.84,855.81c-8.15-2,2.11-18,7.22-14.77C527,845.31,518.53,852.28,515.84,855.81Z"/><path class="cls-6" d="M494.25,814.41c8.68,2.26,1,9.27-1.7,13.49C481.47,834.53,488.32,817.09,494.25,814.41Z"/><path class="cls-6" d="M313.43,654.12c-12.57-1.26,4.29-16.07,9-11.73C326.35,647.33,316.59,651.76,313.43,654.12Z"/><path class="cls-6" d="M349.8,671.76c-1.89,3-11,15.18-14.21,7.27C333.79,674.43,348.34,662.72,349.8,671.76Z"/><path class="cls-6" d="M326.05,668.09c-12.68-2,10.21-21.26,10.84-9.56C336.64,661,328.62,668.12,326.05,668.09Z"/><path class="cls-6" d="M285.85,605.69c-2.82,3.72-11.93,12-15.8,5.86C267.61,606.05,284.79,596.73,285.85,605.69Z"/><path class="cls-6" d="M488.68,685.77C483.63,692,476,707,468.27,706.05,461.19,701.45,484.89,674.34,488.68,685.77Z"/><path class="cls-6" d="M461.66,658.49c-5.05,6.76-13.43,19.8-21.37,20.51C434.92,673.45,458,649.59,461.66,658.49Z"/><path class="cls-6" d="M475.62,672.17c-3.8,4.86-24,31.25-22.63,14.13C458.35,682.27,470.63,660.07,475.62,672.17Z"/><path class="cls-6" d="M487.64,705c26.51-23.86,6.73,3.93-2.48,13.1C473.58,723,485.93,708.84,487.64,705Z"/><path class="cls-33" d="M643.37,188.09C842.33-87.83,1202,294,925.83,470.89,838.48,370.66,737.45,278.94,643.37,188.09Z"/><path class="cls-1" d="M643.37,188.09c101.12,92.58,201.79,188.76,291.87,291.63,19.14,9.1-36.06,65.27-44.36,48.49C807.8,438.15,722.34,347.67,630,266c-11.14-16.38-51.88-30.87-41.38-52.47C606.23,200,621,164.21,643.37,188.09Z"/><path class="cls-33" d="M590.89,231.28C630.28,269.2,930.4,509,885,539.91c-9.77,12.52-47-25.57-57.78-32.61C787,467,747.42,426.55,706,387.51c-32-35.93-71.79-67.22-104-103.29C582.08,263.65,557.31,253.76,590.89,231.28Z"/><path class="cls-34" d="M909.2,180c44.75-2.25,62.75,82,8.55,76.51C878.31,252.09,861.79,182.64,909.2,180Z"/><path class="cls-34" d="M802.6,197.32C727,192.68,788.27,107.58,836,139.73,870.14,161.16,832,199.92,802.6,197.32Z"/><path class="cls-35" d="M991.18,319.68c2.58,25.68-30.78,74.38-51.7,37.76C918.51,318.7,984.84,251.93,991.18,319.68Z"/><path class="cls-35" d="M901.34,138.23c-12.7,1.77-60.19-16.94-37.47-29C879.07,104.17,936.22,133.24,901.34,138.23Z"/><path class="cls-35" d="M1004.12,241.24c-4.34,34.63-42.87-34.62-25.84-45.77C995.29,199.11,1002.12,225.25,1004.12,241.24Z"/></svg>